<svg width="20" height="20" viewBox="0 0 20 20" fill="none" xmlns="http://www.w3.org/2000/svg">
<path d="M11.9668 11.8584C11.4097 12.3076 10.7157 12.5525 10.0001 12.5525C9.28451 12.5525 8.59049 12.3076 8.03342 11.8584C7.86324 11.717 7.64384 11.6489 7.42348 11.6692C7.20313 11.6895 6.99987 11.7966 6.85842 11.9667C6.71697 12.1369 6.64892 12.3563 6.66923 12.5767C6.68955 12.797 6.79657 13.0003 6.96675 13.1417C7.81787 13.8523 8.89139 14.2414 10.0001 14.2414C11.1088 14.2414 12.1823 13.8523 13.0334 13.1417C13.2036 13.0003 13.3106 12.797 13.3309 12.5767C13.3513 12.3563 13.2832 12.1369 13.1418 11.9667C13.0717 11.8825 12.9858 11.8128 12.8888 11.7618C12.7919 11.7107 12.6858 11.6793 12.5767 11.6692C12.3563 11.6489 12.1369 11.717 11.9668 11.8584ZM7.50008 9.16675C7.6649 9.16675 7.82602 9.11787 7.96306 9.02631C8.1001 8.93474 8.20691 8.80459 8.26998 8.65232C8.33306 8.50005 8.34956 8.33249 8.31741 8.17084C8.28525 8.00919 8.20588 7.8607 8.08934 7.74416C7.9728 7.62762 7.82431 7.54825 7.66266 7.51609C7.50101 7.48394 7.33345 7.50044 7.18118 7.56352C7.02891 7.62659 6.89876 7.7334 6.80719 7.87044C6.71563 8.00748 6.66675 8.1686 6.66675 8.33342C6.66675 8.55443 6.75455 8.76639 6.91083 8.92267C7.06711 9.07895 7.27907 9.16675 7.50008 9.16675ZM12.5001 7.50008C12.3353 7.50008 12.1742 7.54896 12.0371 7.64052C11.9001 7.73209 11.7933 7.86224 11.7302 8.01451C11.6671 8.16678 11.6506 8.33434 11.6828 8.49599C11.7149 8.65764 11.7943 8.80613 11.9108 8.92267C12.0274 9.03921 12.1759 9.11858 12.3375 9.15074C12.4992 9.18289 12.6667 9.16639 12.819 9.10331C12.9713 9.04024 13.1014 8.93343 13.193 8.79639C13.2845 8.65935 13.3334 8.49823 13.3334 8.33342C13.3334 8.1124 13.2456 7.90044 13.0893 7.74416C12.9331 7.58788 12.7211 7.50008 12.5001 7.50008ZM10.0001 1.66675C8.35191 1.66675 6.74074 2.15549 5.37033 3.07117C3.99992 3.98685 2.93182 5.28834 2.30109 6.81105C1.67036 8.33377 1.50533 10.0093 1.82687 11.6258C2.14842 13.2423 2.94209 14.7272 4.10753 15.8926C5.27297 17.0581 6.75782 17.8517 8.37433 18.1733C9.99084 18.4948 11.6664 18.3298 13.1891 17.6991C14.7118 17.0683 16.0133 16.0002 16.929 14.6298C17.8447 13.2594 18.3334 11.6483 18.3334 10.0001C18.3334 8.90573 18.1179 7.8221 17.6991 6.81105C17.2803 5.80001 16.6665 4.88135 15.8926 4.10752C15.1188 3.3337 14.2002 2.71987 13.1891 2.30109C12.1781 1.8823 11.0944 1.66675 10.0001 1.66675ZM10.0001 16.6667C8.68154 16.6667 7.39261 16.2758 6.29628 15.5432C5.19996 14.8107 4.34547 13.7695 3.84089 12.5513C3.3363 11.3331 3.20428 9.99269 3.46152 8.69948C3.71875 7.40627 4.35369 6.21839 5.28604 5.28604C6.21839 4.35369 7.40628 3.71875 8.69948 3.46151C9.99269 3.20428 11.3331 3.3363 12.5513 3.84088C13.7695 4.34547 14.8107 5.19995 15.5432 6.29628C16.2758 7.39261 16.6668 8.68154 16.6668 10.0001C16.6668 11.7682 15.9644 13.4639 14.7141 14.7141C13.4639 15.9644 11.7682 16.6667 10.0001 16.6667Z" fill="white"/>
</svg>
