<svg width="16" height="16" viewBox="0 0 16 16" fill="none" xmlns="http://www.w3.org/2000/svg">
<path d="M14.6131 7.73341C13.2665 4.60675 10.7331 2.66675 7.9998 2.66675C5.26647 2.66675 2.73313 4.60675 1.38647 7.73341C1.34976 7.81753 1.33081 7.90831 1.33081 8.00008C1.33081 8.09185 1.34976 8.18264 1.38647 8.26675C2.73313 11.3934 5.26647 13.3334 7.9998 13.3334C10.7331 13.3334 13.2665 11.3934 14.6131 8.26675C14.6498 8.18264 14.6688 8.09185 14.6688 8.00008C14.6688 7.90831 14.6498 7.81753 14.6131 7.73341ZM7.9998 12.0001C5.88647 12.0001 3.88647 10.4734 2.73313 8.00008C3.88647 5.52675 5.88647 4.00008 7.9998 4.00008C10.1131 4.00008 12.1131 5.52675 13.2665 8.00008C12.1131 10.4734 10.1131 12.0001 7.9998 12.0001ZM7.9998 5.33341C7.47238 5.33341 6.95681 5.48981 6.51828 5.78283C6.07975 6.07585 5.73795 6.49232 5.53612 6.97959C5.33429 7.46686 5.28148 8.00304 5.38437 8.52032C5.48727 9.0376 5.74124 9.51276 6.11418 9.8857C6.48712 10.2586 6.96228 10.5126 7.47956 10.6155C7.99684 10.7184 8.53302 10.6656 9.02029 10.4638C9.50756 10.2619 9.92404 9.92013 10.2171 9.4816C10.5101 9.04307 10.6665 8.5275 10.6665 8.00008C10.6665 7.29284 10.3855 6.61456 9.88542 6.11446C9.38532 5.61437 8.70704 5.33341 7.9998 5.33341ZM7.9998 9.33341C7.73609 9.33341 7.47831 9.25522 7.25904 9.10871C7.03977 8.9622 6.86888 8.75396 6.76796 8.51033C6.66704 8.26669 6.64064 7.9986 6.69209 7.73996C6.74353 7.48132 6.87052 7.24374 7.05699 7.05727C7.24346 6.8708 7.48104 6.74381 7.73968 6.69237C7.99832 6.64092 8.26641 6.66733 8.51004 6.76824C8.75368 6.86916 8.96192 7.04006 9.10843 7.25932C9.25493 7.47859 9.33313 7.73637 9.33313 8.00008C9.33313 8.3537 9.19266 8.69284 8.94261 8.94289C8.69256 9.19294 8.35342 9.33341 7.9998 9.33341Z" fill="white"/>
</svg>
