<svg width="24" height="24" viewBox="0 0 24 24" fill="none" xmlns="http://www.w3.org/2000/svg">
<path d="M7.4199 15.5399C7.23365 15.7273 7.12911 15.9807 7.12911 16.2449C7.12911 16.5091 7.23365 16.7625 7.4199 16.9499C7.51286 17.0436 7.62346 17.118 7.74532 17.1688C7.86718 17.2196 7.99789 17.2457 8.1299 17.2457C8.26191 17.2457 8.39262 17.2196 8.51448 17.1688C8.63633 17.118 8.74694 17.0436 8.8399 16.9499C9.02615 16.7625 9.13069 16.5091 9.13069 16.2449C9.13069 15.9807 9.02615 15.7273 8.8399 15.5399C8.74694 15.4462 8.63633 15.3718 8.51448 15.321C8.39262 15.2702 8.26191 15.2441 8.1299 15.2441C7.99789 15.2441 7.86718 15.2702 7.74532 15.321C7.62346 15.3718 7.51286 15.4462 7.4199 15.5399ZM7.4199 7.04989C7.23365 7.23726 7.12911 7.49071 7.12911 7.75489C7.12911 8.01908 7.23365 8.27253 7.4199 8.45989C7.51286 8.55362 7.62346 8.62802 7.74532 8.67879C7.86718 8.72955 7.99789 8.75569 8.1299 8.75569C8.26191 8.75569 8.39262 8.72955 8.51448 8.67879C8.63633 8.62802 8.74694 8.55362 8.8399 8.45989C9.02615 8.27253 9.13069 8.01908 9.13069 7.75489C9.13069 7.49071 9.02615 7.23726 8.8399 7.04989C8.74694 6.95617 8.63633 6.88177 8.51448 6.831C8.39262 6.78023 8.26191 6.7541 8.1299 6.7541C7.99789 6.7541 7.86718 6.78023 7.74532 6.831C7.62346 6.88177 7.51286 6.95617 7.4199 7.04989ZM12.3699 17.0499C12.1721 17.0499 11.9788 17.1085 11.8143 17.2184C11.6499 17.3283 11.5217 17.4845 11.446 17.6672C11.3703 17.8499 11.3505 18.051 11.3891 18.245C11.4277 18.439 11.5229 18.6171 11.6628 18.757C11.8026 18.8969 11.9808 18.9921 12.1748 19.0307C12.3688 19.0693 12.5699 19.0495 12.7526 18.9738C12.9353 18.8981 13.0915 18.7699 13.2014 18.6055C13.3112 18.441 13.3699 18.2477 13.3699 18.0499C13.3767 17.9144 13.3558 17.779 13.3086 17.6518C13.2614 17.5247 13.1888 17.4085 13.0953 17.3102C13.0017 17.212 12.8892 17.1339 12.7645 17.0805C12.6398 17.0272 12.5055 16.9997 12.3699 16.9999V17.0499ZM6.3699 11.0499C6.17212 11.0499 5.97878 11.1085 5.81433 11.2184C5.64988 11.3283 5.52171 11.4845 5.44602 11.6672C5.37033 11.8499 5.35053 12.051 5.38911 12.245C5.4277 12.439 5.52294 12.6171 5.66279 12.757C5.80264 12.8969 5.98083 12.9921 6.17481 13.0307C6.36879 13.0693 6.56986 13.0495 6.75258 12.9738C6.93531 12.8981 7.09149 12.7699 7.20137 12.6055C7.31125 12.441 7.3699 12.2477 7.3699 12.0499C7.37668 11.9144 7.35583 11.779 7.30862 11.6518C7.26141 11.5247 7.18883 11.4085 7.09529 11.3102C7.00174 11.212 6.8892 11.1339 6.76449 11.0805C6.63979 11.0272 6.50554 10.9997 6.3699 10.9999V11.0499ZM12.3699 5.04989C12.1721 5.04989 11.9788 5.10854 11.8143 5.21842C11.6499 5.32831 11.5217 5.48449 11.446 5.66721C11.3703 5.84994 11.3505 6.051 11.3891 6.24499C11.4277 6.43897 11.5229 6.61715 11.6628 6.757C11.8026 6.89685 11.9808 6.99209 12.1748 7.03068C12.3688 7.06926 12.5699 7.04946 12.7526 6.97377C12.9353 6.89809 13.0915 6.76991 13.2014 6.60546C13.3112 6.44102 13.3699 6.24768 13.3699 6.04989C13.3767 5.91443 13.3558 5.779 13.3086 5.65184C13.2614 5.52468 13.1888 5.40846 13.0953 5.31024C13.0017 5.21202 12.8892 5.13385 12.7645 5.0805C12.6398 5.02715 12.5055 4.99972 12.3699 4.99989V5.04989ZM15.9099 7.09989C15.7695 7.23951 15.6736 7.41768 15.6346 7.61182C15.5955 7.80597 15.6149 8.00734 15.6905 8.19041C15.766 8.37348 15.8941 8.53001 16.0587 8.64016C16.2233 8.7503 16.4169 8.8091 16.6149 8.8091C16.8129 8.8091 17.0065 8.7503 17.1711 8.64016C17.3357 8.53001 17.4638 8.37348 17.5393 8.19041C17.6149 8.00734 17.6343 7.80597 17.5952 7.61182C17.5562 7.41768 17.4603 7.23951 17.3199 7.09989C17.1392 6.90685 16.8895 6.79321 16.6252 6.78384C16.361 6.77447 16.1038 6.87013 15.9099 7.04989V7.09989ZM22.2099 7.09989C21.2956 5.27219 19.8903 3.73531 18.1515 2.6616C16.4127 1.58788 14.4091 1.01978 12.3655 1.021C10.3219 1.02222 8.31902 1.59271 6.58148 2.66851C4.84395 3.7443 3.44045 5.28286 2.52838 7.11166C1.61631 8.94045 1.23172 10.9872 1.41774 13.0223C1.60377 15.0574 2.35305 17.0005 3.58157 18.6336C4.81008 20.2668 6.46926 21.5254 8.37304 22.2683C10.2768 23.0113 12.3499 23.2092 14.3599 22.8399C14.8653 22.7448 15.3468 22.5499 15.776 22.2666C16.2053 21.9833 16.5737 21.6172 16.8599 21.1899C17.1682 20.7253 17.381 20.2039 17.4857 19.6562C17.5905 19.1086 17.5851 18.5455 17.4699 17.9999C17.4069 17.6702 17.3735 17.3355 17.3699 16.9999C17.3743 16.0309 17.6602 15.084 18.1928 14.2744C18.7254 13.4648 19.4817 12.8275 20.3699 12.4399C20.8488 12.2255 21.2786 11.9152 21.6329 11.5282C21.9872 11.1413 22.2585 10.6858 22.4299 10.1899C22.6033 9.68318 22.6732 9.1468 22.6354 8.61258C22.5976 8.07835 22.4529 7.55715 22.2099 7.07989V7.09989ZM20.5099 9.53989C20.4246 9.77921 20.2921 9.99898 20.1203 10.1862C19.9486 10.3734 19.741 10.5243 19.5099 10.6299C18.2799 11.1805 17.2349 12.0744 16.5006 13.2044C15.7662 14.3343 15.3736 15.6523 15.3699 16.9999C15.3714 17.47 15.4183 17.9388 15.5099 18.3999C15.571 18.6817 15.575 18.9729 15.5218 19.2562C15.4685 19.5396 15.3591 19.8095 15.1999 20.0499C15.0652 20.2603 14.888 20.4402 14.6796 20.578C14.4712 20.7157 14.2362 20.8084 13.9899 20.8499C13.4558 20.9503 12.9134 21.0005 12.3699 20.9999C11.1641 21.0005 9.97041 20.7587 8.85982 20.289C7.74923 19.8193 6.74435 19.1313 5.90486 18.2656C5.06537 17.4 4.40838 16.3745 3.97291 15.2501C3.53745 14.1256 3.33238 12.9251 3.3699 11.7199C3.44751 9.47269 4.3589 7.33485 5.92653 5.72286C7.49415 4.11086 9.60573 3.14018 11.8499 2.99989H12.3599C14.0357 3.00031 15.678 3.46858 17.102 4.35196C18.526 5.23534 19.6751 6.49874 20.4199 7.99989C20.6491 8.47488 20.6815 9.02118 20.5099 9.51989V9.53989ZM12.3699 10.9999C12.1721 10.9999 11.9788 11.0585 11.8143 11.1684C11.6499 11.2783 11.5217 11.4345 11.446 11.6172C11.3703 11.7999 11.3505 12.001 11.3891 12.195C11.4277 12.389 11.5229 12.5671 11.6628 12.707C11.8026 12.8469 11.9808 12.9421 12.1748 12.9807C12.3688 13.0193 12.5699 12.9995 12.7526 12.9238C12.9353 12.8481 13.0915 12.7199 13.2014 12.5555C13.3112 12.391 13.3699 12.1977 13.3699 11.9999C13.3699 11.7347 13.2645 11.4803 13.077 11.2928C12.8895 11.1053 12.6351 10.9999 12.3699 10.9999Z" fill="#262B35"/>
</svg>
