<svg width="24" height="24" viewBox="0 0 24 24" fill="none" xmlns="http://www.w3.org/2000/svg">
<path d="M21.0553 12H19.0553C18.7901 12 18.5357 12.1054 18.3482 12.2929C18.1606 12.4804 18.0553 12.7348 18.0553 13C18.0553 13.2652 18.1606 13.5196 18.3482 13.7071C18.5357 13.8946 18.7901 14 19.0553 14V16H17.871C17.9896 15.6798 18.0519 15.3415 18.0553 15C18.0554 14.3396 17.8375 13.6976 17.4355 13.1736C17.0335 12.6497 16.4698 12.273 15.8319 12.1021C15.194 11.9313 14.5175 11.9757 13.9074 12.2285C13.2973 12.4813 12.7877 12.9285 12.4576 13.5005C12.3913 13.6143 12.3482 13.74 12.3306 13.8705C12.3131 14.0011 12.3215 14.1338 12.3553 14.261C12.3892 14.3883 12.4479 14.5076 12.528 14.6121C12.6081 14.7166 12.708 14.8043 12.8221 14.8701C12.9362 14.9359 13.0621 14.9785 13.1927 14.9954C13.3233 15.0124 13.456 15.0034 13.5831 14.969C13.7102 14.9346 13.8292 14.8754 13.9334 14.7948C14.0376 14.7142 14.1248 14.6139 14.1901 14.4995C14.2779 14.3477 14.404 14.2217 14.5559 14.1341C14.7077 14.0464 14.88 14.0002 15.0553 14C15.3205 14 15.5749 14.1054 15.7624 14.2929C15.9499 14.4804 16.0553 14.7348 16.0553 15C16.0553 15.2652 15.9499 15.5196 15.7624 15.7071C15.5749 15.8946 15.3205 16 15.0553 16C14.7901 16 14.5357 16.1054 14.3482 16.2929C14.1606 16.4804 14.0553 16.7348 14.0553 17C14.0553 17.2652 14.1606 17.5196 14.3482 17.7071C14.5357 17.8946 14.7901 18 15.0553 18C15.3205 18 15.5749 18.1054 15.7624 18.2929C15.9499 18.4804 16.0553 18.7348 16.0553 19C16.0553 19.2652 15.9499 19.5196 15.7624 19.7071C15.5749 19.8946 15.3205 20 15.0553 20C14.88 19.9998 14.7077 19.9536 14.5559 19.8659C14.404 19.7783 14.2779 19.6522 14.1901 19.5005C14.1248 19.3861 14.0376 19.2858 13.9334 19.2052C13.8292 19.1246 13.7102 19.0654 13.5831 19.031C13.456 18.9966 13.3233 18.9876 13.1927 19.0045C13.0621 19.0215 12.9362 19.0641 12.8221 19.1299C12.708 19.1957 12.6081 19.2834 12.528 19.3879C12.4479 19.4924 12.3892 19.6117 12.3553 19.739C12.3215 19.8662 12.3131 19.9989 12.3306 20.1294C12.3482 20.26 12.3913 20.3857 12.4576 20.4995C12.7877 21.0715 13.2973 21.5186 13.9074 21.7715C14.5175 22.0243 15.194 22.0687 15.8319 21.8978C16.4698 21.7269 17.0335 21.3503 17.4355 20.8264C17.8375 20.3024 18.0554 19.6604 18.0553 19C18.0519 18.6585 17.9896 18.3202 17.871 18H19.0553V21C19.0553 21.2652 19.1606 21.5196 19.3482 21.7071C19.5357 21.8946 19.7901 22 20.0553 22C20.3205 22 20.5749 21.8946 20.7624 21.7071C20.9499 21.5196 21.0553 21.2652 21.0553 21V14C21.3205 14 21.5749 13.8946 21.7624 13.7071C21.9499 13.5196 22.0553 13.2652 22.0553 13C22.0553 12.7348 21.9499 12.4804 21.7624 12.2929C21.5749 12.1054 21.3205 12 21.0553 12ZM9.08557 11.2427C9.14994 11.4999 9.31383 11.721 9.5412 11.8573C9.65378 11.9248 9.77856 11.9695 9.90841 11.9888C10.0383 12.0081 10.1706 12.0016 10.298 11.9697C10.4253 11.9379 10.5451 11.8812 10.6506 11.803C10.7561 11.7249 10.8451 11.6267 10.9126 11.5141C10.9801 11.4015 11.0248 11.2767 11.0441 11.1469C11.0634 11.017 11.0569 10.8847 11.025 10.7573L9.26818 3.72755C9.14487 3.23411 8.86014 2.79607 8.45927 2.48305C8.0584 2.17003 7.56439 2 7.05578 2C6.54718 2 6.05317 2.17003 5.65229 2.48305C5.25142 2.79607 4.96669 3.23411 4.84338 3.72755L3.08557 10.7573C3.02121 11.0145 3.06165 11.2867 3.198 11.5141C3.33434 11.7415 3.55543 11.9054 3.81262 11.9697C4.0698 12.0341 4.34203 11.9937 4.5694 11.8573C4.79677 11.721 4.96066 11.4999 5.02502 11.2427L5.58581 9H8.52508L9.08557 11.2427ZM6.08593 7L6.78283 4.2129C6.80396 4.15763 6.84137 4.11008 6.89011 4.07654C6.93884 4.04299 6.99662 4.02503 7.05578 4.02503C7.11495 4.02503 7.17272 4.04299 7.22146 4.07654C7.2702 4.11008 7.3076 4.15763 7.32873 4.2129L8.02526 7H6.08593ZM14.0553 7H15.0553C15.3204 7.00027 15.5746 7.10571 15.7621 7.29319C15.9496 7.48067 16.055 7.73487 16.0553 8V9C16.0553 9.26522 16.1606 9.51958 16.3482 9.70711C16.5357 9.89465 16.7901 10 17.0553 10C17.3205 10 17.5749 9.89465 17.7624 9.70711C17.9499 9.51958 18.0553 9.26522 18.0553 9V8C18.0544 7.20462 17.7381 6.44206 17.1757 5.87964C16.6132 5.31722 15.8507 5.00087 15.0553 5.00001H14.0553C13.7901 5.00001 13.5357 5.10536 13.3482 5.2929C13.1606 5.48043 13.0553 5.73479 13.0553 6C13.0553 6.26522 13.1606 6.51958 13.3482 6.70711C13.5357 6.89465 13.7901 7 14.0553 7ZM10.0553 16H9.05529C8.79016 15.9997 8.53596 15.8943 8.34848 15.7068C8.161 15.5193 8.05556 15.2651 8.05529 15V14C8.05529 13.7348 7.94994 13.4804 7.7624 13.2929C7.57486 13.1054 7.32051 13 7.05529 13C6.79008 13 6.53572 13.1054 6.34819 13.2929C6.16065 13.4804 6.05529 13.7348 6.05529 14V15C6.05616 15.7954 6.37251 16.5579 6.93493 17.1204C7.49735 17.6828 8.25991 17.9991 9.05529 18H10.0553C10.3205 18 10.5749 17.8946 10.7624 17.7071C10.9499 17.5196 11.0553 17.2652 11.0553 17C11.0553 16.7348 10.9499 16.4804 10.7624 16.2929C10.5749 16.1054 10.3205 16 10.0553 16Z" fill="#262B35"/>
</svg>
