<svg width="224" height="32" viewBox="0 0 224 32" fill="none" xmlns="http://www.w3.org/2000/svg">
<g clip-path="url(#clip0_1111_1747)">
<path d="M5.73199 29.7C5.57599 30.588 6.45199 31.282 7.22399 30.886L16.004 26.374L24.782 30.886C25.554 31.282 26.43 30.588 26.274 29.702L24.614 20.242L31.658 13.53C32.318 12.902 31.978 11.754 31.094 11.63L21.298 10.238L16.93 1.584C16.8468 1.40858 16.7155 1.26037 16.5514 1.15658C16.3873 1.0528 16.1971 0.997712 16.003 0.997712C15.8088 0.997712 15.6187 1.0528 15.4546 1.15658C15.2905 1.26037 15.1592 1.40858 15.076 1.584L10.708 10.24L0.911992 11.632C0.0299924 11.756 -0.312008 12.904 0.345992 13.532L7.39199 20.244L5.73199 29.704V29.7ZM15.542 24.166L8.16999 27.954L9.55799 20.04C9.59051 19.8578 9.57779 19.6705 9.52094 19.4943C9.4641 19.3182 9.36488 19.1588 9.23199 19.03L3.41999 13.49L11.524 12.338C11.6918 12.3127 11.851 12.247 11.9879 12.1467C12.1247 12.0464 12.2353 11.9144 12.31 11.762L16 4.446L19.694 11.762C19.7687 11.9144 19.8792 12.0464 20.0161 12.1467C20.153 12.247 20.3122 12.3127 20.48 12.338L28.584 13.488L22.772 19.028C22.6388 19.157 22.5394 19.3168 22.4825 19.4933C22.4257 19.6697 22.4131 19.8575 22.446 20.04L23.834 27.954L16.462 24.166C16.3194 24.0925 16.1614 24.0542 16.001 24.0542C15.8406 24.0542 15.6825 24.0925 15.54 24.166H15.542Z" fill="#EF9F3B"/>
<path d="M11 11.5L2 13L8.5 20L7 29.5L16 25L25 29.5L24 20L30.5 13L21 11L16 3L11 11.5Z" fill="#EF9F3B"/>
</g>
<g clip-path="url(#clip1_1111_1747)">
<path d="M53.732 29.7C53.576 30.588 54.452 31.282 55.224 30.886L64.004 26.374L72.782 30.886C73.554 31.282 74.43 30.588 74.274 29.702L72.614 20.242L79.658 13.53C80.318 12.902 79.978 11.754 79.094 11.63L69.298 10.238L64.93 1.584C64.8468 1.40858 64.7155 1.26037 64.5514 1.15658C64.3873 1.0528 64.1971 0.997712 64.003 0.997712C63.8088 0.997712 63.6187 1.0528 63.4546 1.15658C63.2905 1.26037 63.1592 1.40858 63.076 1.584L58.708 10.24L48.912 11.632C48.03 11.756 47.688 12.904 48.346 13.532L55.392 20.244L53.732 29.704V29.7ZM63.542 24.166L56.17 27.954L57.558 20.04C57.5905 19.8578 57.5778 19.6705 57.5209 19.4943C57.4641 19.3182 57.3649 19.1588 57.232 19.03L51.42 13.49L59.524 12.338C59.6918 12.3127 59.851 12.247 59.9879 12.1467C60.1247 12.0464 60.2353 11.9144 60.31 11.762L64 4.446L67.694 11.762C67.7687 11.9144 67.8792 12.0464 68.0161 12.1467C68.153 12.247 68.3122 12.3127 68.48 12.338L76.584 13.488L70.772 19.028C70.6388 19.157 70.5394 19.3168 70.4825 19.4933C70.4257 19.6697 70.4131 19.8575 70.446 20.04L71.834 27.954L64.462 24.166C64.3194 24.0925 64.1614 24.0542 64.001 24.0542C63.8406 24.0542 63.6825 24.0925 63.54 24.166H63.542Z" fill="#EF9F3B"/>
<path d="M59 11.5L50 13L56.5 20L55 29.5L64 25L73 29.5L72 20L78.5 13L69 11L64 3L59 11.5Z" fill="#EF9F3B"/>
</g>
<g clip-path="url(#clip2_1111_1747)">
<path d="M101.732 29.7C101.576 30.588 102.452 31.282 103.224 30.886L112.004 26.374L120.782 30.886C121.554 31.282 122.43 30.588 122.274 29.702L120.614 20.242L127.658 13.53C128.318 12.902 127.978 11.754 127.094 11.63L117.298 10.238L112.93 1.584C112.847 1.40858 112.716 1.26037 112.551 1.15658C112.387 1.0528 112.197 0.997712 112.003 0.997712C111.809 0.997712 111.619 1.0528 111.455 1.15658C111.29 1.26037 111.159 1.40858 111.076 1.584L106.708 10.24L96.912 11.632C96.03 11.756 95.688 12.904 96.346 13.532L103.392 20.244L101.732 29.704V29.7ZM111.542 24.166L104.17 27.954L105.558 20.04C105.591 19.8578 105.578 19.6705 105.521 19.4943C105.464 19.3182 105.365 19.1588 105.232 19.03L99.42 13.49L107.524 12.338C107.692 12.3127 107.851 12.247 107.988 12.1467C108.125 12.0464 108.235 11.9144 108.31 11.762L112 4.446L115.694 11.762C115.769 11.9144 115.879 12.0464 116.016 12.1467C116.153 12.247 116.312 12.3127 116.48 12.338L124.584 13.488L118.772 19.028C118.639 19.157 118.539 19.3168 118.483 19.4933C118.426 19.6697 118.413 19.8575 118.446 20.04L119.834 27.954L112.462 24.166C112.319 24.0925 112.161 24.0542 112.001 24.0542C111.841 24.0542 111.683 24.0925 111.54 24.166H111.542Z" fill="#EF9F3B"/>
<path d="M107 11.5L98 13L104.5 20L103 29.5L112 25L121 29.5L120 20L126.5 13L117 11L112 3L107 11.5Z" fill="#EF9F3B"/>
</g>
<g clip-path="url(#clip3_1111_1747)">
<path d="M149.732 29.7C149.576 30.588 150.452 31.282 151.224 30.886L160.004 26.374L168.782 30.886C169.554 31.282 170.43 30.588 170.274 29.702L168.614 20.242L175.658 13.53C176.318 12.902 175.978 11.754 175.094 11.63L165.298 10.238L160.93 1.584C160.847 1.40858 160.716 1.26037 160.551 1.15658C160.387 1.0528 160.197 0.997712 160.003 0.997712C159.809 0.997712 159.619 1.0528 159.455 1.15658C159.29 1.26037 159.159 1.40858 159.076 1.584L154.708 10.24L144.912 11.632C144.03 11.756 143.688 12.904 144.346 13.532L151.392 20.244L149.732 29.704V29.7ZM159.542 24.166L152.17 27.954L153.558 20.04C153.591 19.8578 153.578 19.6705 153.521 19.4943C153.464 19.3182 153.365 19.1588 153.232 19.03L147.42 13.49L155.524 12.338C155.692 12.3127 155.851 12.247 155.988 12.1467C156.125 12.0464 156.235 11.9144 156.31 11.762L160 4.446L163.694 11.762C163.769 11.9144 163.879 12.0464 164.016 12.1467C164.153 12.247 164.312 12.3127 164.48 12.338L172.584 13.488L166.772 19.028C166.639 19.157 166.539 19.3168 166.483 19.4933C166.426 19.6697 166.413 19.8575 166.446 20.04L167.834 27.954L160.462 24.166C160.319 24.0925 160.161 24.0542 160.001 24.0542C159.841 24.0542 159.683 24.0925 159.54 24.166H159.542Z" fill="#EF9F3B"/>
<path d="M155 11.5L146 13L152.5 20L151 29.5L160 25L169 29.5L168 20L174.5 13L165 11L160 3L155 11.5Z" fill="#EF9F3B"/>
</g>
<g clip-path="url(#clip4_1111_1747)">
<path d="M197.732 29.7C197.576 30.588 198.452 31.282 199.224 30.886L208.004 26.374L216.782 30.886C217.554 31.282 218.43 30.588 218.274 29.702L216.614 20.242L223.658 13.53C224.318 12.902 223.978 11.754 223.094 11.63L213.298 10.238L208.93 1.584C208.847 1.40858 208.716 1.26037 208.551 1.15658C208.387 1.0528 208.197 0.997712 208.003 0.997712C207.809 0.997712 207.619 1.0528 207.455 1.15658C207.29 1.26037 207.159 1.40858 207.076 1.584L202.708 10.24L192.912 11.632C192.03 11.756 191.688 12.904 192.346 13.532L199.392 20.244L197.732 29.704V29.7ZM207.542 24.166L200.17 27.954L201.558 20.04C201.591 19.8578 201.578 19.6705 201.521 19.4943C201.464 19.3182 201.365 19.1588 201.232 19.03L195.42 13.49L203.524 12.338C203.692 12.3127 203.851 12.247 203.988 12.1467C204.125 12.0464 204.235 11.9144 204.31 11.762L208 4.446L211.694 11.762C211.769 11.9144 211.879 12.0464 212.016 12.1467C212.153 12.247 212.312 12.3127 212.48 12.338L220.584 13.488L214.772 19.028C214.639 19.157 214.539 19.3168 214.483 19.4933C214.426 19.6697 214.413 19.8575 214.446 20.04L215.834 27.954L208.462 24.166C208.319 24.0925 208.161 24.0542 208.001 24.0542C207.841 24.0542 207.683 24.0925 207.54 24.166H207.542Z" fill="#EF9F3B"/>
</g>
<defs>
<clipPath id="clip0_1111_1747">
<rect width="32" height="32" fill="white"/>
</clipPath>
<clipPath id="clip1_1111_1747">
<rect width="32" height="32" fill="white" transform="translate(48)"/>
</clipPath>
<clipPath id="clip2_1111_1747">
<rect width="32" height="32" fill="white" transform="translate(96)"/>
</clipPath>
<clipPath id="clip3_1111_1747">
<rect width="32" height="32" fill="white" transform="translate(144)"/>
</clipPath>
<clipPath id="clip4_1111_1747">
<rect width="32" height="32" fill="white" transform="translate(192)"/>
</clipPath>
</defs>
</svg>
