<svg width="30" height="30" viewBox="0 0 30 30" fill="none" xmlns="http://www.w3.org/2000/svg">
<path d="M10.3625 16.6125C10.2453 16.7287 10.1523 16.867 10.0889 17.0193C10.0254 17.1716 9.99275 17.335 9.99275 17.5C9.99275 17.665 10.0254 17.8284 10.0889 17.9807C10.1523 18.133 10.2453 18.2713 10.3625 18.3875L14.1125 22.1375C14.2287 22.2547 14.367 22.3477 14.5193 22.4111C14.6716 22.4746 14.835 22.5072 15 22.5072C15.165 22.5072 15.3284 22.4746 15.4807 22.4111C15.633 22.3477 15.7713 22.2547 15.8875 22.1375L19.6375 18.3875C19.8729 18.1521 20.0051 17.8329 20.0051 17.5C20.0051 17.1671 19.8729 16.8479 19.6375 16.6125C19.4021 16.3771 19.0829 16.2449 18.75 16.2449C18.4171 16.2449 18.0979 16.3771 17.8625 16.6125L16.25 18.2375V3.75C16.25 3.41848 16.1183 3.10054 15.8839 2.86612C15.6495 2.6317 15.3315 2.5 15 2.5C14.6685 2.5 14.3505 2.6317 14.1161 2.86612C13.8817 3.10054 13.75 3.41848 13.75 3.75V18.2375L12.1375 16.6125C12.0213 16.4953 11.883 16.4023 11.7307 16.3389C11.5784 16.2754 11.415 16.2428 11.25 16.2428C11.085 16.2428 10.9216 16.2754 10.7693 16.3389C10.617 16.4023 10.4787 16.4953 10.3625 16.6125ZM22.5 11.25H20C19.6685 11.25 19.3505 11.3817 19.1161 11.6161C18.8817 11.8505 18.75 12.1685 18.75 12.5C18.75 12.8315 18.8817 13.1495 19.1161 13.3839C19.3505 13.6183 19.6685 13.75 20 13.75H22.5C22.8315 13.75 23.1495 13.8817 23.3839 14.1161C23.6183 14.3505 23.75 14.6685 23.75 15V23.75C23.75 24.0815 23.6183 24.3995 23.3839 24.6339C23.1495 24.8683 22.8315 25 22.5 25H7.5C7.16848 25 6.85054 24.8683 6.61612 24.6339C6.3817 24.3995 6.25 24.0815 6.25 23.75V15C6.25 14.6685 6.3817 14.3505 6.61612 14.1161C6.85054 13.8817 7.16848 13.75 7.5 13.75H10C10.3315 13.75 10.6495 13.6183 10.8839 13.3839C11.1183 13.1495 11.25 12.8315 11.25 12.5C11.25 12.1685 11.1183 11.8505 10.8839 11.6161C10.6495 11.3817 10.3315 11.25 10 11.25H7.5C6.50544 11.25 5.55161 11.6451 4.84835 12.3483C4.14509 13.0516 3.75 14.0054 3.75 15V23.75C3.75 24.7446 4.14509 25.6984 4.84835 26.4017C5.55161 27.1049 6.50544 27.5 7.5 27.5H22.5C23.4946 27.5 24.4484 27.1049 25.1517 26.4017C25.8549 25.6984 26.25 24.7446 26.25 23.75V15C26.25 14.0054 25.8549 13.0516 25.1517 12.3483C24.4484 11.6451 23.4946 11.25 22.5 11.25Z" fill="#75839D"/>
</svg>
