<svg width="24" height="24" viewBox="0 0 24 24" fill="none" xmlns="http://www.w3.org/2000/svg">
<path d="M18.3 3H5.7C4.98392 3 4.29716 3.28446 3.79081 3.7908C3.28446 4.29714 3 4.98389 3 5.69996V14.6998C3 15.4159 3.28446 16.1027 3.79081 16.609C4.29716 17.1153 4.98392 17.3998 5.7 17.3998H16.131L19.461 20.7388C19.5451 20.8222 19.6448 20.8882 19.7545 20.9329C19.8641 20.9777 19.9816 21.0004 20.1 20.9997C20.2181 21.0028 20.3352 20.9781 20.442 20.9277C20.6064 20.8602 20.7471 20.7456 20.8463 20.5982C20.9457 20.4509 20.9991 20.2774 21 20.0998V5.69996C21 4.98389 20.7155 4.29714 20.2092 3.7908C19.7028 3.28446 19.0161 3 18.3 3ZM19.2 17.9308L17.139 15.8608C17.0549 15.7774 16.9552 15.7114 16.8455 15.6666C16.7359 15.6218 16.6184 15.5991 16.5 15.5998H5.7C5.46131 15.5998 5.23239 15.505 5.0636 15.3362C4.89482 15.1674 4.8 14.9385 4.8 14.6998V5.69996C4.8 5.46127 4.89482 5.23236 5.0636 5.06358C5.23239 4.89479 5.46131 4.79997 5.7 4.79997H18.3C18.5387 4.79997 18.7676 4.89479 18.9364 5.06358C19.1052 5.23236 19.2 5.46127 19.2 5.69996V17.9308Z" fill="#75839D"/>
</svg>
