<svg width="24" height="24" viewBox="0 0 24 24" fill="none" xmlns="http://www.w3.org/2000/svg">
<path d="M11.43 4.21979L6.65 7.99979H3C2.73478 7.99979 2.48043 8.10514 2.29289 8.29268C2.10536 8.48022 2 8.73457 2 8.99979V14.9998C2 15.265 2.10536 15.5194 2.29289 15.7069C2.48043 15.8944 2.73478 15.9998 3 15.9998H6.65L11.38 19.7798C11.5559 19.9209 11.7744 19.9985 12 19.9998C12.1494 20.0023 12.297 19.9679 12.43 19.8998C12.6002 19.8187 12.744 19.6912 12.8448 19.532C12.9457 19.3728 12.9995 19.1883 13 18.9998M11.43 4.21979L11.7315 4.61868C11.7327 4.61777 11.7339 4.61686 11.7351 4.61596M11.43 4.21979C11.5712 4.1131 11.7381 4.04578 11.9138 4.0247C12.0895 4.00362 12.2676 4.02953 12.43 4.09979M11.43 4.21979L11.7401 4.61198L11.7351 4.61596M11.7351 4.61596L6.96014 8.39198L6.82381 8.49979H6.65H3C2.86739 8.49979 2.74021 8.55247 2.64645 8.64623C2.55268 8.74 2.5 8.86718 2.5 8.99979V14.9998C2.5 15.1324 2.55268 15.2596 2.64645 15.3533C2.74021 15.4471 2.86739 15.4998 3 15.4998H6.65H6.82525L6.96215 15.6092L11.6921 19.3892L11.6929 19.3898C11.7809 19.4604 11.8901 19.4991 12.0029 19.4998L12.0083 19.4998V19.4999C12.0756 19.501 12.1421 19.4855 12.202 19.4548L12.2085 19.4515L12.215 19.4484C12.3001 19.4078 12.372 19.3441 12.4224 19.2645C12.4727 19.185 12.4996 19.093 12.5 18.9989M11.7351 4.61596C11.8049 4.56419 11.887 4.5315 11.9734 4.52114C12.0582 4.51096 12.1442 4.5227 12.2231 4.55517M12.5 18.9989V18.9998H13M12.5 18.9989C12.5 18.9987 12.5 18.9986 12.5 18.9984L13 18.9998M12.5 18.9989V5.00064M13 18.9998V4.99979M13 4.99979L12.5 5.0012C12.5 5.00101 12.5 5.00083 12.5 5.00064M13 4.99979C12.9995 4.8113 12.9457 4.6268 12.8448 4.46757C12.744 4.30833 12.6002 4.18084 12.43 4.09979M13 4.99979H12.5V5.00064M12.5 5.00064C12.4996 4.90659 12.4727 4.81455 12.4224 4.73509C12.3736 4.65802 12.3047 4.59583 12.2231 4.55517M12.43 4.09979L12.2315 4.55868C12.2287 4.55748 12.2259 4.55631 12.2231 4.55517M12.43 4.09979L12.215 4.5512C12.2177 4.5525 12.2204 4.55382 12.2231 4.55517M10.6879 17.3104L11.5 17.9591V16.9198V7.07979V6.04044L10.6879 6.68913L7.30793 9.38913L7.3071 9.3898C7.21945 9.46012 7.11067 9.49886 6.99832 9.49979H4H3.5V9.99979V13.9998V14.4998H4H6.99832C7.11067 14.5007 7.21945 14.5395 7.3071 14.6098L7.30793 14.6104L10.6879 17.3104ZM19.5574 11.6453L19.2009 11.9998L19.5574 12.3543L21.3574 14.1443L21.3579 14.1448C21.4048 14.1913 21.442 14.2466 21.4673 14.3075C21.4927 14.3684 21.5058 14.4338 21.5058 14.4998C21.5058 14.5658 21.4927 14.6311 21.4673 14.6921C21.442 14.753 21.4048 14.8083 21.3579 14.8548L21.355 14.8577C21.3085 14.9046 21.2532 14.9417 21.1923 14.9671C21.1314 14.9925 21.066 15.0056 21 15.0056C20.934 15.0056 20.8686 14.9925 20.8077 14.9671C20.7468 14.9417 20.6915 14.9046 20.645 14.8577L20.6445 14.8572L18.8545 13.0572L18.5 12.7007L18.1455 13.0572L16.3555 14.8572L16.355 14.8577C16.3085 14.9046 16.2532 14.9417 16.1923 14.9671C16.1314 14.9925 16.066 15.0056 16 15.0056C15.934 15.0056 15.8686 14.9925 15.8077 14.9671C15.7468 14.9417 15.6915 14.9046 15.645 14.8577L15.6421 14.8548C15.5952 14.8083 15.558 14.753 15.5327 14.6921C15.5073 14.6311 15.4942 14.5658 15.4942 14.4998C15.4942 14.4338 15.5073 14.3684 15.5327 14.3075C15.558 14.2466 15.5952 14.1913 15.6421 14.1448L15.6426 14.1443L17.4426 12.3543L17.7991 11.9998L17.4426 11.6453L15.6436 9.85623C15.6434 9.8561 15.6433 9.85597 15.6432 9.85584C15.5489 9.76134 15.4959 9.6333 15.4959 9.49979C15.4959 9.36609 15.549 9.23788 15.6436 9.14334C15.7381 9.04881 15.8663 8.9957 16 8.9957C16.1335 8.9957 16.2615 9.04864 16.356 9.14289C16.3561 9.14304 16.3563 9.14319 16.3564 9.14334L18.1455 10.9424L18.5 11.2989L18.8545 10.9424L20.6436 9.14334C20.6437 9.14321 20.6438 9.14308 20.6439 9.14295C20.6907 9.09632 20.7461 9.05933 20.8071 9.03407C20.8683 9.00874 20.9338 8.9957 21 8.9957C21.0662 8.9957 21.1317 9.00874 21.1929 9.03407C21.2541 9.0594 21.3096 9.09653 21.3564 9.14334C21.4033 9.19015 21.4404 9.24572 21.4657 9.30688C21.4911 9.36804 21.5041 9.43359 21.5041 9.49979C21.5041 9.56599 21.4911 9.63154 21.4657 9.69269C21.4405 9.75361 21.4036 9.80898 21.357 9.85567C21.3568 9.85586 21.3566 9.85605 21.3564 9.85623L19.5574 11.6453Z" fill="white" stroke="white"/>
</svg>
