<svg width="30" height="30" viewBox="0 0 30 30" fill="none" xmlns="http://www.w3.org/2000/svg">
<path d="M26.25 15.1875C26.25 13.6875 25.0781 12.8906 23.4375 12.8906H18.7031C19.0313 11.625 19.2188 10.4062 19.2188 9.375C19.2188 5.29688 18.0938 4.45312 17.1094 4.45312C16.4531 4.45312 15.9844 4.5 15.3281 4.92187C15.1406 5.01562 15.0469 5.20312 15 5.39062L14.2969 9.1875C13.5469 11.2031 11.625 12.9375 10.0781 14.1094V24.1406C10.5938 24.1406 11.25 24.4219 11.8594 24.75C12.6094 25.125 13.4062 25.5 14.2969 25.5H21C22.4062 25.5 23.4375 24.375 23.4375 23.3906C23.4375 23.2031 23.4375 23.0156 23.3906 22.875C24.2812 22.5469 24.8438 21.7969 24.8438 20.9531C24.8438 20.5313 24.75 20.1562 24.6094 19.875C25.125 19.5 25.6875 18.8906 25.6875 18.1406C25.6875 17.7656 25.5 17.2969 25.2188 16.9688C25.8281 16.5 26.25 15.8437 26.25 15.1875ZM24.7969 15.1875C24.7969 16.0781 23.8594 16.1719 23.7188 16.5937C23.5781 17.0625 24.2812 17.25 24.2812 18.0938C24.2812 18.9844 23.2031 18.9844 23.0625 19.4062C22.875 19.9219 23.3906 20.1094 23.3906 20.9531C23.3906 21 23.3906 21.0469 23.3906 21.0937C23.25 21.7969 22.1719 21.8438 21.9844 22.125C21.7969 22.4531 22.0312 22.6406 22.0312 23.3906C22.0312 23.8125 21.5625 24.0937 21 24.0937H14.2969C13.7812 24.0937 13.125 23.8125 12.5156 23.4844C11.9531 23.2031 11.3906 22.9219 10.7812 22.7813V15.3281C12.5156 14.0156 14.7656 12 15.6563 9.5625C15.6563 9.51562 15.6562 9.46876 15.7031 9.46876L16.3594 5.95313C16.5938 5.85938 16.7812 5.85937 17.1562 5.85937C17.2969 5.85937 17.8594 6.70312 17.8594 9.375C17.8594 10.4062 17.6719 11.5781 17.2969 12.8906H17.1094C16.7344 12.8906 16.4062 13.2187 16.4062 13.5937C16.4062 13.9687 16.7344 14.2969 17.1094 14.2969H23.4375C24.1406 14.2969 24.7969 14.625 24.7969 15.1875Z" fill="#75839D" stroke="#75839D" stroke-width="0.625"/>
<path d="M9.375 25.5469H5.15625C4.35938 25.5469 3.75 24.9375 3.75 24.1406V14.2969C3.75 13.5 4.35938 12.8906 5.15625 12.8906H9.375C10.1719 12.8906 10.7812 13.5 10.7812 14.2969V24.1406C10.7812 24.9375 10.1719 25.5469 9.375 25.5469ZM5.15625 14.2969V24.1406H9.375V14.2969H5.15625Z" fill="#75839D" stroke="#75839D" stroke-width="0.625"/>
</svg>
