<svg width="24" height="24" viewBox="0 0 24 24" fill="none" xmlns="http://www.w3.org/2000/svg">
<path d="M21.6401 12.9999C21.4958 12.8806 21.3208 12.8042 21.1352 12.7795C20.9496 12.7547 20.7607 12.7826 20.5901 12.8599C19.5327 13.3438 18.383 13.5928 17.2201 13.5899C15.069 13.5873 13.0061 12.7344 11.4813 11.217C9.95644 9.69967 9.09333 7.64102 9.08014 5.48991C9.0847 4.81574 9.16861 4.14445 9.33014 3.48991C9.36441 3.31545 9.35156 3.135 9.29289 2.96716C9.23423 2.79932 9.13187 2.65016 8.99638 2.53504C8.86088 2.41992 8.69714 2.343 8.52203 2.31222C8.34692 2.28144 8.16677 2.2979 8.00014 2.35991C6.43246 3.06482 5.06971 4.15667 4.03989 5.53289C3.01008 6.90911 2.34702 8.52453 2.11298 10.2274C1.87895 11.9303 2.08164 13.6647 2.70201 15.2677C3.32237 16.8707 4.34005 18.2897 5.65944 19.3914C6.97882 20.4931 8.55661 21.2413 10.2446 21.5657C11.9325 21.8902 13.6753 21.7802 15.3091 21.2461C16.9429 20.7121 18.4141 19.7715 19.5845 18.5127C20.755 17.2539 21.5862 15.7182 22.0001 14.0499C22.0506 13.8589 22.0433 13.6572 21.9792 13.4704C21.9151 13.2835 21.7971 13.1198 21.6401 12.9999ZM12.1401 19.6899C10.4619 19.6781 8.82834 19.1478 7.46313 18.1716C6.09792 17.1955 5.0678 15.8212 4.51382 14.237C3.95984 12.6528 3.90907 10.9361 4.36847 9.32191C4.82788 7.70773 5.77499 6.27501 7.08014 5.21991V5.48991C7.08278 8.17839 8.15195 10.756 10.053 12.657C11.954 14.5581 14.5317 15.6273 17.2201 15.6299C17.926 15.6325 18.6301 15.5587 19.3201 15.4099C18.63 16.7154 17.5966 17.8077 16.3313 18.5691C15.066 19.3304 13.6168 19.7317 12.1401 19.7299V19.6899Z" fill="#262B35"/>
</svg>
