<svg width="20" height="20" viewBox="0 0 20 20" fill="none" xmlns="http://www.w3.org/2000/svg">
<path d="M16.9502 7.76661L5.28354 1.93328C4.82312 1.70412 4.30322 1.62254 3.79473 1.69965C3.28625 1.77677 2.81392 2.00884 2.44215 2.36421C2.07038 2.71958 1.81725 3.18096 1.71728 3.68545C1.61732 4.18994 1.67537 4.71299 1.88354 5.18328L3.88354 9.65828C3.92892 9.76647 3.95229 9.88262 3.95229 9.99994C3.95229 10.1173 3.92892 10.2334 3.88354 10.3416L1.88354 14.8166C1.71412 15.1972 1.6425 15.6141 1.67519 16.0294C1.70787 16.4447 1.84382 16.8453 2.07069 17.1947C2.29756 17.5441 2.60814 17.8313 2.97423 18.0301C3.34031 18.229 3.75027 18.3332 4.16687 18.3333C4.55707 18.3294 4.94145 18.2383 5.29187 18.0666L16.9585 12.2333C17.3724 12.0251 17.7202 11.706 17.9633 11.3117C18.2063 10.9173 18.3351 10.4632 18.3351 9.99994C18.3351 9.5367 18.2063 9.08257 17.9633 8.68821C17.7202 8.29386 17.3724 7.97479 16.9585 7.76661H16.9502ZM16.2085 10.7416L4.54187 16.5749C4.38867 16.6485 4.21665 16.6735 4.04886 16.6465C3.88107 16.6195 3.72555 16.5419 3.60313 16.424C3.48072 16.3061 3.39727 16.1536 3.36398 15.987C3.33069 15.8203 3.34915 15.6475 3.41687 15.4916L5.40854 11.0166C5.43432 10.9569 5.45658 10.8956 5.47521 10.8333H11.2169C11.4379 10.8333 11.6498 10.7455 11.8061 10.5892C11.9624 10.4329 12.0502 10.221 12.0502 9.99994C12.0502 9.77893 11.9624 9.56697 11.8061 9.41069C11.6498 9.25441 11.4379 9.16661 11.2169 9.16661H5.47521C5.45658 9.10425 5.43432 9.04303 5.40854 8.98328L3.41687 4.50828C3.34915 4.35241 3.33069 4.17957 3.36398 4.01292C3.39727 3.84627 3.48072 3.69378 3.60313 3.5759C3.72555 3.45802 3.88107 3.38039 4.04886 3.3534C4.21665 3.32642 4.38867 3.35139 4.54187 3.42494L16.2085 9.25828C16.345 9.32821 16.4596 9.43446 16.5396 9.56532C16.6196 9.69617 16.6619 9.84657 16.6619 9.99994C16.6619 10.1533 16.6196 10.3037 16.5396 10.4346C16.4596 10.5654 16.345 10.6717 16.2085 10.7416Z" fill="white"/>
</svg>
