<svg width="30" height="30" viewBox="0 0 30 30" fill="none" xmlns="http://www.w3.org/2000/svg">
<path d="M22.5 2.5H7.5C7.16848 2.5 6.85054 2.6317 6.61612 2.86612C6.3817 3.10054 6.25 3.41848 6.25 3.75V26.25C6.24998 26.489 6.31846 26.7229 6.44732 26.9241C6.57617 27.1254 6.76001 27.2855 6.97705 27.3854C7.19409 27.4854 7.43523 27.5211 7.67192 27.4882C7.9086 27.4553 8.13091 27.3553 8.3125 27.2L15 21.5875L21.6125 27.1375C21.7293 27.2534 21.8678 27.345 22.0201 27.4072C22.1724 27.4694 22.3355 27.501 22.5 27.5C22.664 27.5042 22.8267 27.47 22.975 27.4C23.2033 27.3062 23.3987 27.147 23.5366 26.9423C23.6745 26.7377 23.7488 26.4968 23.75 26.25V3.75C23.75 3.41848 23.6183 3.10054 23.3839 2.86612C23.1495 2.6317 22.8315 2.5 22.5 2.5ZM21.25 23.575L15.8 19C15.5754 18.8129 15.2923 18.7105 15 18.7105C14.7077 18.7105 14.4246 18.8129 14.2 19L8.75 23.575V5H21.25V23.575Z" fill="#75839D"/>
</svg>
