<svg width="24" height="24" viewBox="0 0 24 24" fill="none" xmlns="http://www.w3.org/2000/svg">
<path d="M18.75 10.3125C20.0625 10.3125 21 10.95 21 12.15C21 12.675 20.6625 13.2 20.175 13.575C20.4 13.8375 20.55 14.2125 20.55 14.5125C20.55 15.1125 20.1 15.6 19.6875 15.9C19.8 16.125 19.875 16.425 19.875 16.7625C19.875 17.4375 19.425 18.0375 18.7125 18.3C18.75 18.4125 18.75 18.5625 18.75 18.7125C18.75 19.5 17.925 20.4 16.8 20.4H11.4375C10.725 20.4 10.0875 20.1 9.4875 19.8C9 19.5375 8.475 19.3125 8.0625 19.3125V11.2875C9.3 10.35 10.8375 8.9625 11.4375 7.35L12 4.3125C12.0375 4.1625 12.1125 4.0125 12.2625 3.9375C12.7875 3.6 13.1625 3.5625 13.6875 3.5625C14.475 3.5625 15.375 4.2375 15.375 7.5C15.375 8.325 15.225 9.3 14.9625 10.3125H18.75Z" fill="#0061FF"/>
<path d="M7.5 20.4375H4.125C3.4875 20.4375 3 19.95 3 19.3125V11.4375C3 10.8 3.4875 10.3125 4.125 10.3125H7.5C8.1375 10.3125 8.625 10.8 8.625 11.4375V19.3125C8.625 19.95 8.1375 20.4375 7.5 20.4375Z" fill="#0061FF"/>
</svg>
