<svg width="30" height="30" viewBox="0 0 30 30" fill="none" xmlns="http://www.w3.org/2000/svg">
<path d="M27.1338 14.1163L17.1337 4.11626C16.959 3.94145 16.7362 3.82239 16.4938 3.77415C16.2513 3.72591 16 3.75065 15.7716 3.84525C15.5432 3.93985 15.348 4.10005 15.2107 4.3056C15.0733 4.51114 15 4.7528 15 5.00001V9.43116C11.5854 9.74723 8.41157 11.3261 6.09966 13.8588C3.78775 16.3915 2.50414 19.6958 2.5 23.125V25C2.49998 25.2596 2.58078 25.5128 2.73119 25.7244C2.8816 25.9359 3.09415 26.0954 3.33933 26.1807C3.58452 26.266 3.85018 26.2728 4.09942 26.2003C4.34867 26.1277 4.56914 25.9793 4.73022 25.7758C5.95478 24.3194 7.45729 23.1218 9.14996 22.2527C10.8426 21.3836 12.6915 20.8606 14.5886 20.7141C14.6509 20.7062 14.8071 20.694 15 20.6818V25C15 25.2472 15.0733 25.4889 15.2107 25.6944C15.348 25.9 15.5432 26.0602 15.7716 26.1548C16 26.2494 16.2513 26.2741 16.4938 26.2259C16.7362 26.1776 16.959 26.0586 17.1337 25.8838L27.1338 15.8838C27.2498 15.7677 27.3419 15.63 27.4048 15.4783C27.4676 15.3267 27.4999 15.1642 27.4999 15C27.4999 14.8359 27.4676 14.6733 27.4048 14.5217C27.3419 14.3701 27.2498 14.2323 27.1338 14.1163ZM17.5 21.9824V19.375C17.5 19.2109 17.4677 19.0483 17.4049 18.8966C17.3421 18.7449 17.2501 18.6071 17.134 18.491C17.0179 18.375 16.8801 18.2829 16.7284 18.2201C16.5767 18.1573 16.4142 18.125 16.25 18.125C15.9314 18.125 14.6301 18.1867 14.2981 18.2313C10.9288 18.5416 7.7217 19.8216 5.0647 21.9165C5.36611 19.1594 6.67397 16.6104 8.73783 14.7576C10.8017 12.9048 13.4765 11.8784 16.25 11.875C16.4142 11.8751 16.5767 11.8428 16.7284 11.78C16.8801 11.7171 17.0179 11.6251 17.134 11.509C17.2501 11.3929 17.3421 11.2551 17.4049 11.1034C17.4677 10.9517 17.5 10.7892 17.5 10.625V8.01759L24.4824 15L17.5 21.9824Z" fill="#75839D"/>
</svg>
