<svg width="20" height="20" viewBox="0 0 20 20" fill="none" xmlns="http://www.w3.org/2000/svg">
<path d="M18.2665 9.66665C16.5831 5.75831 13.4165 3.33331 9.99981 3.33331C6.58314 3.33331 3.41648 5.75831 1.73314 9.66665C1.68726 9.77178 1.66357 9.88526 1.66357 9.99998C1.66357 10.1147 1.68726 10.2282 1.73314 10.3333C3.41648 14.2416 6.58314 16.6666 9.99981 16.6666C13.4165 16.6666 16.5831 14.2416 18.2665 10.3333C18.3124 10.2282 18.336 10.1147 18.336 9.99998C18.336 9.88526 18.3124 9.77178 18.2665 9.66665ZM9.99981 15C7.35814 15 4.85814 13.0916 3.41648 9.99998C4.85814 6.90831 7.35814 4.99998 9.99981 4.99998C12.6415 4.99998 15.1415 6.90831 16.5831 9.99998C15.1415 13.0916 12.6415 15 9.99981 15ZM9.99981 6.66665C9.34054 6.66665 8.69607 6.86214 8.14791 7.22841C7.59975 7.59469 7.1725 8.11528 6.92021 8.72437C6.66792 9.33345 6.60191 10.0037 6.73053 10.6503C6.85914 11.2969 7.17661 11.8908 7.64279 12.357C8.10896 12.8232 8.70291 13.1406 9.34951 13.2693C9.99611 13.3979 10.6663 13.3319 11.2754 13.0796C11.8845 12.8273 12.4051 12.4 12.7714 11.8519C13.1376 11.3037 13.3331 10.6593 13.3331 9.99998C13.3331 9.11592 12.982 8.26808 12.3568 7.64296C11.7317 7.01784 10.8839 6.66665 9.99981 6.66665ZM9.99981 11.6666C9.67018 11.6666 9.34794 11.5689 9.07386 11.3858C8.79978 11.2026 8.58616 10.9423 8.46001 10.6378C8.33387 10.3332 8.30086 9.99813 8.36517 9.67483C8.42948 9.35153 8.58821 9.05456 8.8213 8.82147C9.05439 8.58838 9.35136 8.42965 9.67466 8.36534C9.99796 8.30103 10.3331 8.33403 10.6376 8.46018C10.9422 8.58633 11.2025 8.79995 11.3856 9.07403C11.5687 9.34811 11.6665 9.67034 11.6665 9.99998C11.6665 10.442 11.4909 10.8659 11.1783 11.1785C10.8658 11.4911 10.4418 11.6666 9.99981 11.6666Z" fill="#BAC1CE"/>
</svg>
