<svg width="24" height="24" viewBox="0 0 24 24" fill="none" xmlns="http://www.w3.org/2000/svg">
<path d="M20.7363 11.3715L13.5363 4.26037C13.4105 4.13605 13.2501 4.05139 13.0756 4.01709C12.901 3.98278 12.72 4.00038 12.5556 4.06765C12.3911 4.13492 12.2506 4.24884 12.1517 4.395C12.0528 4.54117 12 4.71302 12 4.88881V8.03985C9.54149 8.26461 7.25634 9.38736 5.59176 11.1884C3.92718 12.9894 3.00298 15.3392 3 17.7777V19.111C2.99999 19.2956 3.05816 19.4757 3.16646 19.6261C3.27475 19.7766 3.42779 19.89 3.60432 19.9507C3.78086 20.0113 3.97213 20.0162 4.15159 19.9646C4.33104 19.913 4.48978 19.8075 4.60577 19.6627C5.48745 18.6271 6.56926 17.7754 7.78798 17.1574C9.00671 16.5394 10.3379 16.1674 11.7038 16.0633C11.7487 16.0577 11.8612 16.049 12 16.0403V19.111C12 19.2868 12.0528 19.4587 12.1517 19.6049C12.2506 19.751 12.3911 19.8649 12.5556 19.9322C12.72 19.9995 12.901 20.0171 13.0756 19.9828C13.2501 19.9485 13.4105 19.8638 13.5363 19.7395L20.7363 12.6284C20.8199 12.5459 20.8862 12.4479 20.9315 12.3401C20.9767 12.2322 21 12.1166 21 11.9999C21 11.8832 20.9767 11.7676 20.9315 11.6598C20.8862 11.552 20.8199 11.454 20.7363 11.3715ZM13.8 16.9652V15.111C13.8001 14.9943 13.7768 14.8787 13.7316 14.7708C13.6864 14.663 13.6201 14.565 13.5365 14.4824C13.4529 14.3999 13.3537 14.3344 13.2445 14.2898C13.1353 14.2451 13.0182 14.2221 12.9 14.2222C12.6706 14.2222 11.7337 14.266 11.4947 14.2977C9.06878 14.5184 6.75963 15.4286 4.84659 16.9183C5.06361 14.9577 6.00527 13.1451 7.49125 11.8275C8.97723 10.51 10.9031 9.78012 12.9 9.7777C13.0182 9.77773 13.1353 9.75476 13.2445 9.7101C13.3537 9.66544 13.4529 9.59997 13.5365 9.51742C13.6201 9.43488 13.6864 9.33687 13.7316 9.22901C13.7768 9.12116 13.8001 9.00555 13.8 8.88882V7.03465L18.8274 11.9999L13.8 16.9652Z" fill="#75839D"/>
</svg>
