<svg width="24" height="24" viewBox="0 0 24 24" fill="none" xmlns="http://www.w3.org/2000/svg">
<path d="M21 12.15C21 10.95 20.0625 10.3125 18.75 10.3125H14.9625C15.225 9.3 15.375 8.325 15.375 7.5C15.375 4.2375 14.475 3.5625 13.6875 3.5625C13.1625 3.5625 12.7875 3.6 12.2625 3.9375C12.1125 4.0125 12.0375 4.1625 12 4.3125L11.4375 7.35C10.8375 8.9625 9.3 10.35 8.0625 11.2875V19.3125C8.475 19.3125 9 19.5375 9.4875 19.8C10.0875 20.1 10.725 20.4 11.4375 20.4H16.8C17.925 20.4 18.75 19.5 18.75 18.7125C18.75 18.5625 18.75 18.4125 18.7125 18.3C19.425 18.0375 19.875 17.4375 19.875 16.7625C19.875 16.425 19.8 16.125 19.6875 15.9C20.1 15.6 20.55 15.1125 20.55 14.5125C20.55 14.2125 20.4 13.8375 20.175 13.575C20.6625 13.2 21 12.675 21 12.15Z" fill="#0061FF"/>
<path d="M7.5 20.4375H4.125C3.4875 20.4375 3 19.95 3 19.3125V11.4375C3 10.8 3.4875 10.3125 4.125 10.3125H7.5C8.1375 10.3125 8.625 10.8 8.625 11.4375V19.3125C8.625 19.95 8.1375 20.4375 7.5 20.4375Z" fill="#0061FF"/>
</svg>
