<?xml version="1.0" encoding="UTF-8"?>
<svg version="1.1" xmlns="http://www.w3.org/2000/svg" width="1752" height="1392">
<path d="M0 0 C5.46775381 3.3179852 10.9735098 6.57221427 16.47537231 9.83322144 C18.56038152 11.0690764 20.64488364 12.3057825 22.72924805 13.54272461 C32.4088669 19.28651645 42.09208944 25.02422946 51.77587891 30.76098633 C64.49224513 38.29505535 77.20027799 45.84315204 89.90869141 53.390625 C95.93694077 56.97072462 101.96563161 60.5500807 107.99429321 64.12948608 C111.32596655 66.10761457 114.65761069 68.08579222 117.98925781 70.06396484 C119.32259101 70.85563175 120.65592434 71.64729841 121.98925781 72.43896484 C187.98925781 111.62646484 253.98925781 150.81396484 385.98925781 229.18896484 C386.97922005 229.77675468 386.97922005 229.77675468 387.98918152 230.37641907 C389.32276972 231.16823738 390.65635737 231.96005664 391.98994446 232.75187683 C395.31937369 234.72873099 398.64881256 236.70556891 401.97827148 238.68237305 C408.02487649 242.27245373 414.07140612 245.86266109 420.11758423 249.45346069 C433.23824588 257.2457542 446.35998703 265.0361825 459.48925781 272.81396484 C473.30156326 280.99637705 487.10544859 289.19293749 500.90869141 297.390625 C506.93694077 300.97072462 512.96563161 304.5500807 518.99429321 308.12948608 C522.32596655 310.10761457 525.65761069 312.08579222 528.98925781 314.06396484 C530.32259101 314.85563175 531.65592434 315.64729841 532.98925781 316.43896484 C598.98925781 355.62646484 664.98925781 394.81396484 830.98901367 493.37635803 C832.32311616 494.16845594 833.65726334 494.96047858 834.99145508 495.75242615 C838.31338989 497.72438179 841.63455199 499.69761535 844.95410156 501.67358398 C851.08945962 505.3238824 857.23113719 508.96176349 863.39956665 512.55596924 C881.81775064 523.28830979 899.50734858 533.95834644 914.98925781 548.81396484 C915.93027344 549.69181641 916.87128906 550.56966797 917.84082031 551.47412109 C930.46109543 563.46369062 940.05998427 577.37509359 947.98925781 592.81396484 C948.33972168 593.48508301 948.69018555 594.15620117 949.05126953 594.84765625 C969.26708237 633.94647362 972.60779064 681.94416711 959.45410156 723.85693359 C942.91406655 774.00670496 908.91776417 804.99747739 864.18444824 830.80532837 C859.14877534 833.71279574 854.15370044 836.68238322 849.17675781 839.68896484 C840.71838138 844.78671443 832.23246668 849.83705416 823.73925781 854.87646484 C823.05826019 855.2805658 822.37726257 855.68466675 821.67562866 856.10101318 C818.17811766 858.17633499 814.68041565 860.2513346 811.18261719 862.32617188 C805.11303114 865.92675887 799.04514186 869.53020318 792.97717285 873.1335144 C789.64794197 875.11045607 786.31859378 877.08720016 782.98925781 879.06396484 C781.65592392 879.85563057 780.32259059 880.64729724 778.98925781 881.43896484 C642.98925727 962.18896517 642.98925727 962.18896517 640.98933411 963.37641907 C639.6557459 964.16823738 638.32215826 964.96005664 636.98857117 965.75187683 C633.65914194 967.72873099 630.32970307 969.70556891 627.00024414 971.68237305 C620.95363913 975.27245373 614.90710951 978.86266109 608.8609314 982.45346069 C594.6444677 990.8965454 580.4254988 999.33533374 566.19970703 1007.76269531 C553.48435834 1015.29626389 540.77726566 1022.8437293 528.06982422 1030.390625 C522.04157485 1033.97072462 516.01288402 1037.5500807 509.98422241 1041.12948608 C506.65254908 1043.10761457 503.32090494 1045.08579222 499.98925781 1047.06396484 C498.65592462 1047.85563175 497.32259129 1048.64729841 495.98925781 1049.43896484 C495.32925781 1049.83083984 494.66925781 1050.22271484 493.98925781 1050.62646484 C427.98925781 1089.81396484 361.98925781 1129.00146484 197.98933411 1226.37641907 C196.6557459 1227.16823738 195.32215826 1227.96005664 193.98857117 1228.75187683 C190.65914194 1230.72873099 187.32970307 1232.70556891 184.00024414 1234.68237305 C177.95363913 1238.27245373 171.90710951 1241.86266109 165.8609314 1245.45346069 C151.6444677 1253.8965454 137.4254988 1262.33533374 123.19970703 1270.76269531 C114.56415669 1275.87907177 105.93222099 1281.001513 97.30175781 1286.12646484 C96.63455719 1286.52266022 95.96735657 1286.91885559 95.27993774 1287.32705688 C90.51627828 1290.15585869 85.75275318 1292.98488672 80.98925781 1295.81396484 C78.93901811 1297.03161866 76.88877517 1298.249267 74.83851624 1299.46688843 C73.47703511 1300.27546757 72.11557469 1301.08408159 70.75413513 1301.89273071 C67.39477883 1303.88794321 64.03494046 1305.88233515 60.67407227 1307.875 C54.28700574 1311.66266128 47.9062306 1315.46005782 41.54003906 1319.28271484 C-9.04832193 1349.62450405 -62.80461267 1364.9027702 -121.72192383 1350.86474609 C-154.39742431 1342.585675 -183.87726311 1327.24161112 -209.01074219 1304.81396484 C-209.5421582 1304.3442627 -210.07357422 1303.87456055 -210.62109375 1303.390625 C-249.93147841 1268.55758627 -271.60770915 1219.08214922 -274.80387089 1167.04628541 C-275.20357724 1159.64650168 -275.14917446 1152.23986748 -275.13937664 1144.83169365 C-275.14072593 1143.05203707 -275.14251131 1141.27238077 -275.14468887 1139.49272501 C-275.14939156 1134.62122494 -275.14792612 1129.7497437 -275.1454111 1124.87824274 C-275.14377171 1119.57107232 -275.1479241 1114.26390583 -275.15132028 1108.95673668 C-275.15646549 1099.66122441 -275.15789301 1090.36571734 -275.15686417 1081.07020378 C-275.15533795 1067.24705433 -275.15950385 1053.42391063 -275.16473879 1039.6007623 C-275.17440653 1013.47495538 -275.17722344 987.3491509 -275.17779585 961.22334246 C-275.1778606 958.34361159 -275.17792854 955.46388071 -275.17799926 952.58414984 C-275.17801626 951.86949999 -275.17803327 951.15485014 -275.17805079 950.41854424 C-275.17845961 934.56699178 -275.18065072 918.71543972 -275.1831551 902.86388747 C-275.18418349 896.3324383 -275.18517353 889.80098913 -275.18617135 883.26953995 C-275.18628194 882.54782601 -275.18639253 881.82611207 -275.18650647 881.08252801 C-275.19282862 839.73702495 -275.19695579 798.39152216 -275.19649792 757.0460186 C-275.19648214 755.49944662 -275.1964664 753.95287464 -275.19645071 752.40630265 C-275.19637733 745.4239855 -275.19628916 738.44166835 -275.19619682 731.45935121 C-275.1961557 728.34589174 -275.19611555 725.23243227 -275.19607551 722.11897281 C-275.19605512 720.56063231 -275.1960341 719.0022918 -275.19601245 717.4439513 C-275.19533227 668.17210379 -275.20264921 618.90026347 -275.21655273 569.62841797 C-275.2200539 557.21413614 -275.22352343 544.79985431 -275.22681713 532.38557243 C-275.22712144 531.23889671 -275.22712144 531.23889671 -275.2274319 530.06905582 C-275.23364931 506.49853222 -275.23741292 482.92800921 -275.23867512 459.35748482 C-275.23871507 458.61719265 -275.23875502 457.87690048 -275.23879618 457.11417521 C-275.23964956 440.86101596 -275.23991062 424.60785675 -275.2396258 408.35469748 C-275.23952932 402.53868065 -275.23947728 396.72266382 -275.23944707 390.90664699 C-275.23943916 389.45983685 -275.23942896 388.01302671 -275.23941645 386.56621657 C-275.23924033 363.53904376 -275.24492999 340.51187712 -275.25357027 317.48470608 C-275.2624723 293.63870793 -275.26403397 269.7927217 -275.25725814 245.94672231 C-275.25356444 232.20708941 -275.25538951 218.46748349 -275.26520048 204.72785344 C-275.27120427 195.54312771 -275.26990055 186.3584215 -275.26272998 177.17369666 C-275.25885191 171.94527361 -275.25806296 166.71690276 -275.26618733 161.48848341 C-275.32240522 122.70127616 -273.8755371 86.65101304 -255.01074219 51.81396484 C-254.69379395 51.21100586 -254.3768457 50.60804687 -254.05029297 49.98681641 C-235.08952514 13.95251114 -200.27172604 -13.93532501 -162.01074219 -27.18603516 C-102.45121011 -45.62878598 -51.66263122 -31.58418254 0 0 Z M26.98925781 311.81396484 C26.98925781 549.74396484 26.98925781 787.67396484 26.98925781 1032.81396484 C36.14068984 1027.58457511 45.27522658 1022.33699998 54.36425781 1017.00146484 C54.97498138 1016.64324646 55.58570496 1016.28502808 56.2149353 1015.91595459 C70.1553387 1007.73782864 84.05009246 999.48314578 97.94091797 991.22119141 C103.95602915 987.64389471 109.97426536 984.07186151 115.99227905 980.49945068 C119.32473445 978.52117291 122.65698576 976.54255142 125.98925781 974.56396484 C127.32259017 973.77229653 128.6559235 972.98062987 129.98925781 972.18896484 C130.64925781 971.79708984 131.30925781 971.40521484 131.98925781 971.00146484 C169.98925811 948.43896467 169.98925811 948.43896467 171.98918152 947.25151062 C173.32276972 946.45969231 174.65635737 945.66787305 175.98994446 944.87605286 C179.31937369 942.8991987 182.64881256 940.92236078 185.97827148 938.94555664 C192.02487649 935.35547596 198.07140612 931.76526859 204.11758423 928.17446899 C218.33404793 919.73138429 232.55301683 911.29259595 246.77880859 902.86523438 C259.49415729 895.3316658 272.20124997 887.78420039 284.90869141 880.23730469 C290.93694077 876.65720507 296.96563161 873.07784898 302.99429321 869.4984436 C306.32596655 867.52031512 309.65761069 865.54213747 312.98925781 863.56396484 C314.32259101 862.77229794 315.65592434 861.98063128 316.98925781 861.18896484 C317.97925781 860.60115234 317.97925781 860.60115234 318.98925781 860.00146484 C417.98925781 801.22021484 417.98925781 801.22021484 548.98925781 723.43896484 C549.64922256 723.04710999 550.30918732 722.65525513 550.989151 722.25152588 C552.32283758 721.45965106 553.65652695 720.66778095 554.99021912 719.87591553 C558.31817064 717.89997207 561.64607403 715.92394762 564.97387695 713.94775391 C571.03789041 710.34678896 577.10228977 706.74648088 583.16842651 703.14909363 C600.13793972 693.08562033 617.08489 682.98660695 633.98925781 672.81396484 C630.99930352 669.56401453 627.9541826 667.43137386 624.13378906 665.23193359 C623.56411911 664.90127396 622.99444916 664.57061432 622.40751648 664.22993469 C621.18176382 663.519249 619.9543984 662.81133895 618.72558594 662.10595703 C615.42739101 660.21242481 612.14101293 658.29853041 608.85253906 656.38818359 C608.18493561 656.00117279 607.51733215 655.61416199 606.82949829 655.21542358 C600.67749358 651.64531576 594.57828317 647.99037621 588.48925781 644.31396484 C579.42399679 638.850272 570.3143105 633.46790789 561.17675781 628.12646484 C552.37093975 622.97827229 543.58558757 617.80025622 534.84838867 612.53613281 C527.16420244 607.90937871 519.45313989 603.32846517 511.73925781 598.75146484 C510.71776138 598.14531342 510.71776138 598.14531342 509.67562866 597.5269165 C506.17811766 595.4515947 502.68041565 593.37659509 499.18261719 591.30175781 C493.11303114 587.70117081 487.04514186 584.0977265 480.97717285 580.49441528 C477.64794197 578.51747362 474.31859378 576.54072952 470.98925781 574.56396484 C469.65592392 573.77229912 468.32259059 572.98063245 466.98925781 572.18896484 C466.32925781 571.79708984 465.66925781 571.40521484 464.98925781 571.00146484 C398.98925781 531.81396484 332.98925781 492.62646484 234.98925781 434.43896484 C234.32928299 434.04710495 233.66930817 433.65524506 232.98933411 433.25151062 C231.6557459 432.45969231 230.32215826 431.66787305 228.98857117 430.87605286 C225.65914194 428.8991987 222.32970307 426.92236078 219.00024414 424.94555664 C212.95363913 421.35547596 206.90710951 417.76526859 200.8609314 414.17446899 C187.74026974 406.38217549 174.61852859 398.59174719 161.48925781 390.81396484 C147.67695237 382.63155264 133.87306703 374.43499219 120.06982422 366.23730469 C115.37082743 363.44663104 110.67158154 360.65637703 105.972229 357.86630249 C102.65141993 355.89468316 99.33071373 353.92289106 96.01025391 351.95068359 C89.92825635 348.33847836 83.84539962 344.72775365 77.75872803 341.12342834 C74.99441649 339.48641802 72.23054788 337.84866124 69.46685791 336.21060181 C68.11568696 335.40978289 66.76441068 334.60914166 65.4130249 333.8086853 C58.5628792 329.74974031 51.72608534 325.67214226 44.93847656 321.50927734 C43.863479 320.85032471 42.78848145 320.19137207 41.6809082 319.51245117 C39.68911387 318.28750003 37.69986186 317.05840184 35.71362305 315.82446289 C34.84809814 315.29119385 33.98257324 314.7579248 33.09082031 314.20849609 C32.3413916 313.74290283 31.59196289 313.27730957 30.81982422 312.79760742 C29.04198156 311.65618617 29.04198156 311.65618617 26.98925781 311.81396484 Z " fill="#127AC8" transform="translate(275.0107421875,36.18603515625)"/>
<path d="M0 0 C3.42273397 1.34019537 6.54926936 2.79426269 9.71875 4.66015625 C10.6360791 5.19777588 11.5534082 5.73539551 12.49853516 6.28930664 C13.48901855 6.87446045 14.47950195 7.45961426 15.5 8.0625 C16.54591309 8.67665771 17.59182617 9.29081543 18.66943359 9.92358398 C20.92984264 11.25109681 23.18952111 12.57978049 25.44824219 13.91015625 C29.04789111 16.02949899 32.65239649 18.1404871 36.2578125 20.25 C48.05867885 27.15615536 59.84732509 34.08243033 71.61376953 41.04711914 C79.23021734 45.55243693 86.8639657 50.02800271 94.5 54.5 C103.88323036 59.99523209 113.25578092 65.5079062 122.61328125 71.046875 C130.22994124 75.55219072 137.8638089 80.02791089 145.5 84.5 C154.8869153 89.99739015 164.26323065 95.51208825 173.62426758 101.0534668 C181.13262332 105.49492324 188.6591238 109.90511467 196.1875 114.3125 C206.75576127 120.49974669 217.30053092 126.72496888 227.83032227 132.97753906 C236.0770274 137.87062018 244.34724544 142.72221222 252.625 147.5625 C261.72164438 152.8817537 270.78563344 158.25026873 279.8125 163.6875 C290.74402218 170.27072857 301.75181539 176.71518803 312.78369141 183.12841797 C318.67357038 186.55576063 324.55700695 189.99408146 330.4375 193.4375 C331.04890839 193.79548676 331.66031677 194.15347351 332.29025269 194.52230835 C341.86345315 200.13074317 351.3875116 205.81732581 360.89160156 211.54223633 C368.95487181 216.39193109 377.06909669 221.14941536 385.20361328 225.87841797 C392.61134061 230.18534895 399.99415398 234.53258847 407.36669922 238.89941406 C412.55185282 241.96834751 417.74401514 245.0249151 422.9453125 248.06640625 C423.54495819 248.41709167 424.14460388 248.7677771 424.76242065 249.12908936 C425.67110397 249.6604953 425.67110397 249.6604953 426.59814453 250.20263672 C437.03761017 256.30783075 447.45280742 262.44737014 457.8125 268.6875 C468.74120134 275.26903938 479.74598984 281.71223147 490.77490234 288.12402344 C500.94374151 294.03903935 511.0979343 299.97841507 521.22973633 305.95666504 C522.99373653 306.99630852 524.75941043 308.03306004 526.52539062 309.06933594 C529.79488617 310.99284257 533.05497315 312.93131067 536.3125 314.875 C537.78988647 315.7402832 537.78988647 315.7402832 539.29711914 316.62304688 C540.18520264 317.15736328 541.07328613 317.69167969 541.98828125 318.2421875 C542.76727783 318.7047998 543.54627441 319.16741211 544.34887695 319.64404297 C544.89374756 320.09150879 545.43861816 320.53897461 546 321 C546 321.99 546 322.98 546 324 C543.57592773 325.75830078 543.57592773 325.75830078 540.18359375 327.6953125 C539.58087646 328.04379242 538.97815918 328.39227234 538.35717773 328.75131226 C536.38962878 329.88608981 534.41365829 331.00529487 532.4375 332.125 C531.07945108 332.90566995 529.72211048 333.6875734 528.36547852 334.47070312 C525.79334138 335.95489188 523.21763686 337.43249892 520.63867188 338.90478516 C516.87838326 341.05894439 513.15545358 343.27377549 509.4375 345.5 C508.3546875 346.14710938 507.271875 346.79421875 506.15625 347.4609375 C503.06936622 349.32837194 500.01597897 351.2466453 496.96543884 353.17279053 C494.435224 354.76629596 491.89649727 356.34595896 489.35696411 357.92456055 C488.08681195 358.71891808 486.8205062 359.51946241 485.55831909 360.32641602 C483.77610542 361.46515025 481.9817215 362.581931 480.18359375 363.6953125 C478.61436157 364.6855542 478.61436157 364.6855542 477.01342773 365.69580078 C473.39200391 367.26313822 471.74781507 367.10607786 468 366 C465.63598633 364.93115234 465.63598633 364.93115234 463.33203125 363.5859375 C462.45321289 363.0801416 461.57439453 362.5743457 460.66894531 362.05322266 C459.72631836 361.49940918 458.78369141 360.9455957 457.8125 360.375 C455.74152605 359.18117965 453.66988408 357.98851755 451.59765625 356.796875 C450.51629395 356.17232422 449.43493164 355.54777344 448.32080078 354.90429688 C442.82851978 351.75477535 437.28917805 348.69105037 431.75 345.625 C429.46611189 344.35813411 427.18225799 343.09120655 424.8984375 341.82421875 C423.75987305 341.19306152 422.62130859 340.5619043 421.44824219 339.91162109 C406.08594526 331.39513957 390.73428531 322.86037404 375.41357422 314.26928711 C367.78597163 309.99429869 360.14560447 305.74269813 352.5 301.5 C342.79176766 296.1127086 333.09819775 290.70000203 323.4140625 285.26953125 C315.78627042 280.99450924 308.14576345 276.74278635 300.5 272.5 C290.79176766 267.1127086 281.09819775 261.70000203 271.4140625 256.26953125 C263.78627042 251.99450924 256.14576345 247.74278635 248.5 243.5 C238.79176766 238.1127086 229.09819775 232.70000203 219.4140625 227.26953125 C211.78627042 222.99450924 204.14576345 218.74278635 196.5 214.5 C186.79176766 209.1127086 177.09819775 203.70000203 167.4140625 198.26953125 C159.78627021 193.99450913 152.14573939 189.74282998 144.5 185.5 C128.84540163 176.81189521 113.22390022 168.0651862 97.61987305 159.28662109 C96.88418846 158.87276657 96.14850388 158.45891205 95.39052582 158.03251648 C93.59366996 157.0217024 91.79683302 156.01085468 90 155 C89.74487632 166.35234647 89.54955566 177.70400893 89.43006611 189.05864048 C89.37270815 194.33154765 89.29495208 199.6024909 89.17016602 204.87426758 C89.05043864 209.96432125 88.98483475 215.05248946 88.95635033 220.1438427 C88.93605955 222.08374665 88.8964309 224.02354979 88.83696938 225.96264839 C88.11059695 236.52675428 88.11059695 236.52675428 92.31620789 245.66299438 C95.14881775 247.49231241 97.86212582 248.78277759 101 250 C102.0624292 250.64743164 103.1248584 251.29486328 104.21948242 251.96191406 C105.08935791 252.47463867 105.9592334 252.98736328 106.85546875 253.515625 C107.87318359 254.11697266 108.89089844 254.71832031 109.93945312 255.33789062 C111.54723633 256.28438477 111.54723633 256.28438477 113.1875 257.25 C114.35494812 257.93923228 115.522262 258.62869197 116.68945312 259.31835938 C118.53619509 260.40955251 120.38300418 261.50062974 122.23019409 262.59106445 C128.81771057 266.4802013 135.39467823 270.38704502 141.97125244 274.29464722 C145.35940621 276.30767272 148.74803223 278.31990275 152.13671875 280.33203125 C152.80022339 280.72600601 153.46372803 281.11998077 154.14733887 281.52589417 C165.09369974 288.02489664 176.04714015 294.51195858 187 301 C202.70110492 310.30071419 218.39859818 319.60742979 234.08764648 328.9284668 C240.40347942 332.68031106 246.72117313 336.42887703 253.046875 340.1640625 C270.28114716 350.34472403 287.40439262 360.69914904 304.48828125 371.12939453 C307.9700643 373.25504981 311.45310498 375.37862891 314.9375 377.5 C315.51263336 377.85020203 316.08776672 378.20040405 316.68032837 378.56121826 C325.00490557 383.62518681 333.38248303 388.59106797 341.80020142 393.49847412 C351.57790654 399.19977802 361.33596552 404.93231136 371.0055542 410.81564331 C372.71464138 411.85352763 374.42880762 412.8830335 376.14306641 413.91235352 C377.16319824 414.53682373 378.18333008 415.16129395 379.234375 415.8046875 C380.13381836 416.35108887 381.03326172 416.89749023 381.95996094 417.46044922 C384 419 384 419 385 422 C384.10023438 422.49886719 383.20046875 422.99773437 382.2734375 423.51171875 C373.45117787 428.42662662 364.72661744 433.4914398 356.04125977 438.64404297 C348.92654269 442.86458682 341.795127 447.05585807 334.65545654 451.23397827 C324.48122159 457.18807063 314.3238112 463.16904237 304.1875 469.1875 C293.89763331 475.2958302 283.57562094 481.34634858 273.234375 487.3671875 C266.27417065 491.42021968 259.32348442 495.48941843 252.375 499.5625 C251.75691467 499.92479706 251.13882935 500.28709412 250.50201416 500.66036987 C241.78565148 505.77056679 233.08114423 510.90050336 224.38623047 516.04711914 C216.14330134 520.92301617 207.87984804 525.7636806 199.61572266 530.60351562 C190.86220233 535.73041492 182.12023067 540.87631485 173.39111328 546.04467773 C166.36358608 550.20234157 159.31836849 554.32944311 152.27084351 558.45306396 C142.77368823 564.0107412 133.29257139 569.59160994 123.86865234 575.27294922 C118.8056372 578.32301989 113.73013756 581.35108699 108.64453125 584.36328125 C107.9882373 584.75204941 107.33194336 585.14081757 106.65576172 585.54136658 C105.2951954 586.34726461 103.9346199 587.15314714 102.57403564 587.95901489 C101.88960388 588.36441498 101.20517212 588.76981506 100.5 589.1875 C99.47431915 589.79499588 99.47431915 589.79499588 98.42791748 590.4147644 C88.68196082 596.18994969 78.98147061 602.03447142 69.3125 607.9375 C60.56165693 613.27911709 51.75296987 618.48665953 42.82666016 623.52929688 C35.71529894 627.55809844 28.69369529 631.72877366 21.6875 635.9375 C20.12092651 636.87843506 20.12092651 636.87843506 18.52270508 637.83837891 C14.11518115 640.49368603 9.72759329 643.16610195 5.39453125 645.94140625 C2 648 2 648 0 648 C0 562.86 0 477.72 0 390 C3.69284286 391.47713714 6.78649119 392.91742964 10.19140625 394.87890625 C11.71193604 395.75385742 11.71193604 395.75385742 13.26318359 396.64648438 C14.35195801 397.27876953 15.44073242 397.91105469 16.5625 398.5625 C17.69768066 399.21927734 18.83286133 399.87605469 20.00244141 400.55273438 C29.8513407 406.26847704 39.59527517 412.15440874 49.30688477 418.09985352 C56.48714422 422.49252644 63.71164623 426.78917047 71 431 C70.92297852 431.81734619 70.84595703 432.63469238 70.76660156 433.47680664 C68.99032469 453.2029144 69.74366916 472.48139786 73 492 C76.60528468 490.62595793 79.97060125 489.02707054 83.3671875 487.19921875 C84.40528564 486.64121582 85.44338379 486.08321289 86.51293945 485.50830078 C87.62241943 484.90743652 88.73189941 484.30657227 89.875 483.6875 C91.61559692 482.74753174 91.61559692 482.74753174 93.39135742 481.78857422 C101.68543236 477.29913057 109.91263093 472.69724179 118.10986328 468.03344727 C125.78936284 463.66845796 133.51160572 459.3842877 141.25 455.125 C141.85871948 454.78991425 142.46743896 454.45482849 143.09460449 454.10958862 C144.00828796 453.60662766 144.00828796 453.60662766 144.94042969 453.09350586 C146.17253759 452.4152228 147.40463394 451.73691875 148.63671875 451.05859375 C149.24730133 450.72246567 149.85788391 450.38633759 150.48696899 450.0400238 C157.0221225 446.44043486 163.54263902 442.81470407 170.0625 439.1875 C181.02309462 433.09099414 192.00336072 427.03122405 203 421 C193.93679499 415.19810733 184.6018311 409.93119086 175.20141602 404.69873047 C167.1022168 400.18749847 159.04211254 395.61182559 151 391 C142.11283021 385.90469952 133.19939062 380.86052771 124.25 375.875 C116.15269655 371.36240707 108.11727392 366.75849561 100.125 362.0625 C90.44906187 356.37875448 80.67444061 350.8920974 70.85375977 345.46289062 C61.48565322 340.28147826 52.18174761 334.99622097 42.89941406 329.66308594 C39.56843526 327.75245714 36.23376899 325.84832771 32.8984375 323.9453125 C31.65030803 323.23299367 30.40217978 322.52067269 29.15405273 321.80834961 C27.32572922 320.76494178 25.49734961 319.72163325 23.66873169 318.67874146 C21.96504125 317.70694581 20.2618142 316.73433789 18.55859375 315.76171875 C17.58204834 315.20444092 16.60550293 314.64716309 15.59936523 314.07299805 C15.0709655 313.75497209 14.54256577 313.43694614 13.99815392 313.10928303 C11.88186859 311.8954728 11.88186859 311.8954728 9.07423186 310.70297617 C0.68326622 306.63368378 0.68326622 306.63368378 -1.10695887 302.35327065 C-1.51776726 299.0434821 -1.54297431 295.9133762 -1.4430542 292.57923889 C-1.4533073 291.32777445 -1.4635604 290.07631 -1.47412419 288.7869224 C-1.50089562 285.32357684 -1.45307549 281.8647041 -1.39278746 278.40192878 C-1.34087569 274.66446223 -1.35850823 270.9272399 -1.36761475 267.18951416 C-1.3739018 260.71744738 -1.33631325 254.24683422 -1.26876068 247.77513313 C-1.17115791 238.41845014 -1.13997612 229.06246873 -1.12490478 219.70533185 C-1.0986528 204.52377799 -1.01882682 189.34299864 -0.90527344 174.16186523 C-0.79509408 159.4164619 -0.71016886 144.67126907 -0.65917969 129.92553711 C-0.65602701 129.01634252 -0.65287432 128.10714794 -0.64962611 127.170402 C-0.63396545 122.60915603 -0.618801 118.04790857 -0.60388327 113.48666012 C-0.47951885 75.65722658 -0.26819417 37.82867364 0 0 Z " fill="#127CC9" transform="translate(321,386)"/>
<path d="M0 0 C0 41.91 0 83.82 0 127 C38.28 127 76.56 127 116 127 C116 147.79 116 168.58 116 190 C77.72 190 39.44 190 0 190 C0.11974667 234.72952474 0.11974667 234.72952474 0.2578125 279.45898438 C0.2778179 285.50154574 0.29770192 291.54410749 0.31738281 297.58666992 C0.31985425 298.34391568 0.32232569 299.10116144 0.32487202 299.88135403 C0.36449703 312.0765495 0.39728076 324.27175412 0.42749982 336.4669761 C0.45870975 349.00005304 0.49735924 361.53309144 0.54279006 374.06612498 C0.57055014 381.78796789 0.59263665 389.5097829 0.60726251 397.23166204 C0.61913769 403.1715457 0.64140719 409.11136321 0.66738319 415.05120277 C0.67639404 417.47417568 0.68213387 419.89716351 0.68421364 422.32015228 C0.71093694 448.74290081 1.24062294 479.20726388 20 500 C33.03398021 511.31013121 47.17227367 513.38959527 63.875 513.3125 C64.60555603 513.31200653 65.33611206 513.31151306 66.08880615 513.31100464 C77.64536528 513.28709277 88.67429891 512.32044619 100 510 C102.33015112 509.63322729 104.66174819 509.31277914 107 509 C107.92364124 511.77092372 108.21223117 513.79599535 108.38891602 516.67993164 C108.44890274 517.62844498 108.50888947 518.57695831 108.57069397 519.55421448 C108.63115402 520.57917526 108.69161407 521.60413605 108.75390625 522.66015625 C108.81907944 523.71980087 108.88425262 524.7794455 108.95140076 525.87120056 C109.08862296 528.11803485 109.22382681 530.36499317 109.35717773 532.61206055 C109.56026399 536.02492391 109.77083226 539.43726385 109.98242188 542.84960938 C110.11503458 545.03643102 110.24720972 547.22327924 110.37890625 549.41015625 C110.44139053 550.42094742 110.50387482 551.43173859 110.56825256 552.47315979 C110.93036382 558.6570268 111.07598178 564.80586533 111 571 C68.93975829 585.51584014 18.6351693 587.99812836 -22.3125 568.75 C-46.20369172 556.19606361 -62.73814019 534.48031515 -70.98388672 509.04907227 C-79.40975208 481.47058927 -80.15791251 452.90737633 -80.11352539 424.31640625 C-80.11324285 421.75250245 -80.11340256 419.18859857 -80.1139679 416.62469482 C-80.11419438 411.13558343 -80.11138905 405.64648739 -80.10573006 400.15737915 C-80.0975538 392.22135109 -80.0949936 384.28532875 -80.09374207 376.34929693 C-80.0915611 363.46918946 -80.08492709 350.58908838 -80.07543945 337.70898438 C-80.0662405 325.20768261 -80.05917185 312.70638259 -80.05493164 300.20507812 C-80.05466892 299.43266285 -80.05440619 298.66024758 -80.05413551 297.86442578 C-80.05283034 293.98889741 -80.05156666 290.11336904 -80.05032361 286.23784065 C-80.03998079 254.15855477 -80.02155866 222.07928079 -80 190 C-102.77 190 -125.54 190 -149 190 C-149 169.21 -149 148.42 -149 127 C-126.23 127 -103.46 127 -80 127 C-80 92.02 -80 57.04 -80 21 C-55.6894685 14.05413386 -55.6894685 14.05413386 -44.8046875 11.1328125 C-43.5985379 10.80836151 -42.39238831 10.48391052 -41.14968872 10.14962769 C-38.65163033 9.4784048 -36.15332987 8.80808221 -33.65478516 8.13867188 C-31.10215293 7.45410082 -28.54999022 6.76802328 -25.99853516 6.07910156 C-22.26824229 5.07244708 -18.53665859 4.07072492 -14.8046875 3.0703125 C-13.08933304 2.60638596 -13.08933304 2.60638596 -11.33932495 2.13308716 C-10.28617096 1.85214203 -9.23301697 1.5711969 -8.14794922 1.28173828 C-7.22311737 1.03336212 -6.29828552 0.78498596 -5.34542847 0.52908325 C-3 0 -3 0 0 0 Z " fill="#1969BC" transform="translate(1636,353)"/>
<path d="M0 0 C4.49853294 1.33310081 8.16529485 3.12894727 12.1484375 5.59765625 C12.71823334 5.94786835 13.28802917 6.29808044 13.87509155 6.65890503 C15.08654107 7.40401493 16.29639963 8.15171688 17.50476074 8.90182495 C20.65410578 10.85631617 23.81528233 12.79145492 26.9765625 14.7265625 C27.59378174 15.10483688 28.21100098 15.48311127 28.84692383 15.87284851 C33.4241717 18.66983739 38.04972675 21.35386985 42.75 23.9375 C48.34803065 27.02679433 53.7826366 30.30958043 59.18774414 33.72412109 C65.8137763 37.90346171 72.49325624 41.99363108 79.1875 46.0625 C80.08060883 46.60546219 80.08060883 46.60546219 80.99176025 47.15939331 C89.5511239 52.35728697 98.16114578 57.46205944 106.81228638 62.50552368 C116.58596911 68.20446645 126.33995074 73.93473611 136.0055542 79.81564331 C137.71464138 80.85352763 139.42880762 81.8830335 141.14306641 82.91235352 C142.16319824 83.53682373 143.18333008 84.16129395 144.234375 84.8046875 C145.13381836 85.35108887 146.03326172 85.89749023 146.95996094 86.46044922 C149 88 149 88 150 91 C149.10023438 91.49886719 148.20046875 91.99773437 147.2734375 92.51171875 C138.45117787 97.42662662 129.72661744 102.4914398 121.04125977 107.64404297 C113.92654269 111.86458682 106.795127 116.05585807 99.65545654 120.23397827 C89.48122159 126.18807063 79.3238112 132.16904237 69.1875 138.1875 C58.89763331 144.2958302 48.57562094 150.34634858 38.234375 156.3671875 C31.27417065 160.42021968 24.32348442 164.48941843 17.375 168.5625 C16.75691467 168.92479706 16.13882935 169.28709412 15.50201416 169.66036987 C6.78565148 174.77056679 -1.91885577 179.90050336 -10.61376953 185.04711914 C-18.85669866 189.92301617 -27.12015196 194.7636806 -35.38427734 199.60351562 C-44.13779767 204.73041492 -52.87976933 209.87631485 -61.60888672 215.04467773 C-68.63641392 219.20234157 -75.68163151 223.32944311 -82.72915649 227.45306396 C-92.22631177 233.0107412 -101.70742861 238.59160994 -111.13134766 244.27294922 C-116.1943628 247.32301989 -121.26986244 250.35108699 -126.35546875 253.36328125 C-127.0117627 253.75204941 -127.66805664 254.14081757 -128.34423828 254.54136658 C-129.7048046 255.34726461 -131.0653801 256.15314714 -132.42596436 256.95901489 C-133.11039612 257.36441498 -133.79482788 257.76981506 -134.5 258.1875 C-135.18378723 258.59249725 -135.86757446 258.99749451 -136.57208252 259.4147644 C-146.31803918 265.18994969 -156.01852939 271.03447142 -165.6875 276.9375 C-174.43834307 282.27911709 -183.24703013 287.48665953 -192.17333984 292.52929688 C-199.28470106 296.55809844 -206.30630471 300.72877366 -213.3125 304.9375 C-214.35688232 305.56479004 -215.40126465 306.19208008 -216.47729492 306.83837891 C-220.88481885 309.49368603 -225.27240671 312.16610195 -229.60546875 314.94140625 C-233 317 -233 317 -235 317 C-235 231.86 -235 146.72 -235 59 C-231.30715714 60.47713714 -228.21350881 61.91742964 -224.80859375 63.87890625 C-223.79490723 64.46220703 -222.7812207 65.04550781 -221.73681641 65.64648438 C-220.64804199 66.27876953 -219.55926758 66.91105469 -218.4375 67.5625 C-217.30231934 68.21927734 -216.16713867 68.87605469 -214.99755859 69.55273438 C-205.1486593 75.26847704 -195.40472483 81.15440874 -185.69311523 87.09985352 C-178.51285578 91.49252644 -171.28835377 95.78917047 -164 100 C-164.07702148 100.81734619 -164.15404297 101.63469238 -164.23339844 102.47680664 C-166.00967531 122.2029144 -165.25633084 141.48139786 -162 161 C-158.39471532 159.62595793 -155.02939875 158.02707054 -151.6328125 156.19921875 C-150.59471436 155.64121582 -149.55661621 155.08321289 -148.48706055 154.50830078 C-147.37758057 153.90743652 -146.26810059 153.30657227 -145.125 152.6875 C-143.38440308 151.74753174 -143.38440308 151.74753174 -141.60864258 150.78857422 C-133.31456764 146.29913057 -125.08736907 141.69724179 -116.89013672 137.03344727 C-109.21063716 132.66845796 -101.48839428 128.3842877 -93.75 124.125 C-93.14128052 123.78991425 -92.53256104 123.45482849 -91.90539551 123.10958862 C-91.29627319 122.77428131 -90.68715088 122.438974 -90.05957031 122.09350586 C-88.82746241 121.4152228 -87.59536606 120.73691875 -86.36328125 120.05859375 C-85.75269867 119.72246567 -85.14211609 119.38633759 -84.51303101 119.0400238 C-77.97787678 115.44043446 -71.45742823 111.81458451 -64.9375 108.1875 C-56.86055798 103.69672258 -48.78102475 99.2108374 -40.6875 94.75 C-39.88755615 94.30809326 -39.0876123 93.86618652 -38.26342773 93.41088867 C-35.13940836 91.69188202 -32.03250964 90.01559665 -28.81640625 88.47265625 C-14.34281178 80.90463251 -3.11106457 65.48931009 1.92578125 50.1875 C6.92493185 32.74970453 4.58527524 17.28296053 0 0 Z " fill="#0F83CF" transform="translate(556,717)"/>
<path d="M0 0 C27.06 0 54.12 0 82 0 C82 146.85 82 293.7 82 445 C54.94 445 27.88 445 0 445 C0 298.15 0 151.3 0 0 Z " fill="#1379C8" transform="translate(1323,480)"/>
<path d="M0 0 C1.78953969 0.37165276 3.59147353 0.68221194 5.39355469 0.98730469 C13.48712708 2.49627581 19.83036672 5.80008996 26.75878906 10.07617188 C30.14118552 12.13812695 33.57276997 14.11397299 36.99951172 16.10107422 C41.18541603 18.52937633 45.36176431 20.97392448 49.5390625 23.41699219 C51.84269821 24.76403902 54.14665275 26.11052158 56.45117188 27.45605469 C70.29688443 35.54073946 84.10432923 43.68088814 97.83959961 51.95239258 C107.74295001 57.90765251 117.72598773 63.72204903 127.71630859 69.52978516 C133.60618757 72.95712782 139.48962414 76.39544865 145.37011719 79.83886719 C145.98152557 80.19685394 146.59293396 80.5548407 147.22286987 80.92367554 C156.79607034 86.53211036 166.32012879 92.218693 175.82421875 97.94360352 C183.887489 102.79329828 192.00171388 107.55078255 200.13623047 112.27978516 C207.5439578 116.58671613 214.92677117 120.93395566 222.29931641 125.30078125 C227.48447001 128.3697147 232.67663233 131.42628228 237.87792969 134.46777344 C238.47757538 134.81845886 239.07722107 135.16914429 239.69503784 135.53045654 C240.60372116 136.06186249 240.60372116 136.06186249 241.53076172 136.60400391 C251.97022735 142.70919794 262.38542461 148.84873733 272.74511719 155.08886719 C283.67381853 161.67040657 294.67860702 168.11359866 305.70751953 174.52539062 C315.8763587 180.44040653 326.03055149 186.37978226 336.16235352 192.35803223 C337.92635372 193.39767571 339.69202762 194.43442722 341.45800781 195.47070312 C344.72750335 197.39420976 347.98759034 199.33267786 351.24511719 201.27636719 C352.2300415 201.85322266 353.21496582 202.43007813 354.22973633 203.02441406 C355.56186157 203.82588867 355.56186157 203.82588867 356.92089844 204.64355469 C357.69989502 205.10616699 358.4788916 205.5687793 359.28149414 206.04541016 C359.82636475 206.49287598 360.37123535 206.9403418 360.93261719 207.40136719 C360.93261719 208.39136719 360.93261719 209.38136719 360.93261719 210.40136719 C358.50854492 212.15966797 358.50854492 212.15966797 355.11621094 214.09667969 C354.51349365 214.44515961 353.91077637 214.79363953 353.28979492 215.15267944 C351.32224597 216.28745699 349.34627548 217.40666206 347.37011719 218.52636719 C346.01206826 219.30703714 344.65472767 220.08894059 343.2980957 220.87207031 C340.72595857 222.35625907 338.15025405 223.83386611 335.57128906 225.30615234 C331.81100045 227.46031157 328.08807077 229.67514267 324.37011719 231.90136719 C323.28730469 232.54847656 322.20449219 233.19558594 321.08886719 233.86230469 C318.0019834 235.72973913 314.94859616 237.64801249 311.89805603 239.57415771 C309.36784119 241.16766315 306.82911445 242.74732614 304.2895813 244.32592773 C303.01942913 245.12028526 301.75312339 245.9208296 300.49093628 246.7277832 C298.70872261 247.86651743 296.91433869 248.98329818 295.11621094 250.09667969 C293.54697876 251.08692139 293.54697876 251.08692139 291.94604492 252.09716797 C288.3246211 253.66450541 286.68043225 253.50744505 282.93261719 252.40136719 C280.56860352 251.33251953 280.56860352 251.33251953 278.26464844 249.98730469 C277.38583008 249.48150879 276.50701172 248.97571289 275.6015625 248.45458984 C274.65893555 247.90077637 273.71630859 247.34696289 272.74511719 246.77636719 C270.67414323 245.58254683 268.60250127 244.38988474 266.53027344 243.19824219 C265.44891113 242.57369141 264.36754883 241.94914063 263.25341797 241.30566406 C257.76113697 238.15614253 252.22179523 235.09241756 246.68261719 232.02636719 C244.39872908 230.7595013 242.11487517 229.49257373 239.83105469 228.22558594 C238.69249023 227.59442871 237.55392578 226.96327148 236.38085938 226.31298828 C221.01856244 217.79650676 205.6669025 209.26174123 190.34619141 200.6706543 C182.71858882 196.39566588 175.07822165 192.14406532 167.43261719 187.90136719 C157.72438485 182.51407579 148.03081494 177.10136922 138.34667969 171.67089844 C130.71888761 167.39587643 123.07838063 163.14415354 115.43261719 158.90136719 C105.72438485 153.51407579 96.03081494 148.10136922 86.34667969 142.67089844 C78.71888761 138.39587643 71.07838063 134.14415354 63.43261719 129.90136719 C53.72438485 124.51407579 44.03081494 119.10136922 34.34667969 113.67089844 C26.71888761 109.39587643 19.07838063 105.14415354 11.43261719 100.90136719 C1.72438485 95.51407579 -7.96918506 90.10136922 -17.65332031 84.67089844 C-25.28111346 80.39587583 -32.92174629 76.14438359 -40.56738281 71.90136719 C-64.8033265 58.4437376 -64.8033265 58.4437376 -76.24365234 51.98095703 C-78.95152572 50.46617744 -81.67607041 48.98692429 -84.40722656 47.51464844 C-85.98177673 46.64415389 -87.55601811 45.77310046 -89.12988281 44.90136719 C-89.8448291 44.52842529 -90.55977539 44.1554834 -91.29638672 43.77124023 C-93.22753906 42.68261719 -93.22753906 42.68261719 -96.06738281 40.40136719 C-96.74316406 37.41699219 -96.74316406 37.41699219 -96.06738281 34.40136719 C-94.45019531 31.97949219 -94.45019531 31.97949219 -92.19238281 29.65136719 C-91.36480469 28.79285156 -90.53722656 27.93433594 -89.68457031 27.04980469 C-88.3890625 25.73882813 -88.3890625 25.73882813 -87.06738281 24.40136719 C-86.28621094 23.54800781 -85.50503906 22.69464844 -84.70019531 21.81542969 C-62.63031811 -1.70165258 -30.25101997 -6.48132108 0 0 Z " fill="#1671C1" transform="translate(506.0673828125,499.5986328125)"/>
<path d="M0 0 C1.06460449 0.17160645 2.12920898 0.34321289 3.22607422 0.52001953 C34.62665792 5.71706925 65.0279937 14.87703609 94 28 C94.86093262 28.38526855 95.72186523 28.77053711 96.60888672 29.16748047 C133.2217389 45.63880483 167.8324187 69.26528619 196 98 C194.37843976 102.10108886 191.4232297 104.83148167 188.3359375 107.859375 C187.78386627 108.40861633 187.23179504 108.95785767 186.66299438 109.52374268 C184.90498185 111.27059293 183.1401311 113.01034601 181.375 114.75 C180.1792292 115.93573591 178.98391135 117.1219288 177.7890625 118.30859375 C174.86459747 121.21105085 171.93398126 124.1071641 169 127 C167.72921207 126.06989219 166.46160335 125.13543988 165.1953125 124.19921875 C164.48906738 123.67932373 163.78282227 123.15942871 163.05517578 122.6237793 C161.15900431 121.12562814 159.52373538 119.57406463 157.875 117.8125 C153.05421378 112.86200653 147.54976496 108.74888664 142.06445312 104.57275391 C140.65848378 103.50165001 139.25627489 102.42559608 137.85742188 101.34521484 C125.48771182 91.81181936 112.60629 83.65135375 99 76 C98.3095459 75.60586914 97.6190918 75.21173828 96.90771484 74.80566406 C27.78024599 35.4619334 -59.53750218 26.80770099 -135.84765625 47.25390625 C-189.71943169 62.28607877 -234.97822535 89.56999364 -276 127 C-280.10108886 125.37843976 -282.83148167 122.4232297 -285.859375 119.3359375 C-286.40861633 118.78386627 -286.95785767 118.23179504 -287.52374268 117.66299438 C-289.27059293 115.90498185 -291.01034601 114.1401311 -292.75 112.375 C-293.93573591 111.1792292 -295.1219288 109.98391135 -296.30859375 108.7890625 C-299.21105085 105.86459747 -302.1071641 102.93398126 -305 100 C-303.9123293 96.7369879 -303.24933287 96.12160072 -300.6875 94 C-297.2052136 91.05912915 -293.87544913 88.0054175 -290.5625 84.875 C-283.15744213 78.00534808 -275.12629072 71.98341139 -267 66 C-266.30745117 65.48791992 -265.61490234 64.97583984 -264.90136719 64.44824219 C-240.70718434 46.66008411 -214.02433323 31.81420324 -186 21 C-185.15969238 20.67193359 -184.31938477 20.34386719 -183.45361328 20.00585938 C-158.95858628 10.51806147 -133.86944 4.33899192 -108 0 C-106.95908203 -0.18079102 -105.91816406 -0.36158203 -104.84570312 -0.54785156 C-71.28876343 -6.12588879 -33.54249591 -5.5750054 0 0 Z " fill="#04A1E5" transform="translate(1418,33)"/>
<path d="M0 0 C3.69284286 1.47713714 6.78649119 2.91742964 10.19140625 4.87890625 C11.20509277 5.46220703 12.2187793 6.04550781 13.26318359 6.64648438 C14.35195801 7.27876953 15.44073242 7.91105469 16.5625 8.5625 C17.69768066 9.21927734 18.83286133 9.87605469 20.00244141 10.55273438 C29.8513407 16.26847704 39.59527517 22.15440874 49.30688477 28.09985352 C56.48714422 32.49252644 63.71164623 36.78917047 71 41 C70.92297852 41.81718506 70.84595703 42.63437012 70.76660156 43.47631836 C67.70525306 77.47915346 69.25657754 113.57059364 90 142 C90.7425 143.051875 91.485 144.10375 92.25 145.1875 C107.87285298 161.16541782 128.24204369 167.32006387 150 168 C150 168.66 150 169.32 150 170 C147.78222656 171.51782227 147.78222656 171.51782227 144.640625 173.31640625 C144.07336197 173.64451797 143.50609894 173.9726297 142.92164612 174.3106842 C141.68579352 175.02474372 140.44803489 175.7355119 139.20864868 176.44342041 C135.86847772 178.35183675 132.54232082 180.28440737 129.21484375 182.21484375 C128.18571114 182.81075317 128.18571114 182.81075317 127.13578796 183.41870117 C120.29908298 187.38647344 113.55303787 191.4967484 106.8125 195.625 C96.70177727 201.80728493 86.49484544 207.80312628 76.21264648 213.69677734 C69.11036047 217.77083948 62.06122775 221.91993814 55.05249023 226.15258789 C49.74999475 229.35340365 44.4334013 232.52927022 39.10546875 235.6875 C38.40476257 236.10292053 37.7040564 236.51834106 36.9821167 236.9463501 C34.15916591 238.61955842 31.33600321 240.2924036 28.51165771 241.96325684 C26.52935008 243.13602529 24.54771704 244.30992333 22.56640625 245.484375 C21.61402069 246.04822906 21.61402069 246.04822906 20.64239502 246.62347412 C17.47704218 248.50376998 14.3294865 250.40738972 11.20654297 252.35742188 C10.30729347 252.91819427 10.30729347 252.91819427 9.38987732 253.49029541 C7.75446558 254.51418888 6.12306567 255.54448226 4.49194336 256.57519531 C2 258 2 258 0 258 C0 172.86 0 87.72 0 0 Z " fill="#0799DF" transform="translate(321,776)"/>
<path d="M0 0 C3.56502054 1.42600821 6.46696419 2.74580911 9.71875 4.66015625 C10.6360791 5.19777588 11.5534082 5.73539551 12.49853516 6.28930664 C13.48901855 6.87446045 14.47950195 7.45961426 15.5 8.0625 C16.54591309 8.67665771 17.59182617 9.29081543 18.66943359 9.92358398 C20.92984264 11.25109681 23.18952111 12.57978049 25.44824219 13.91015625 C29.04789111 16.02949899 32.65239649 18.1404871 36.2578125 20.25 C48.05867885 27.15615536 59.84732509 34.08243033 71.61376953 41.04711914 C79.23021734 45.55243693 86.8639657 50.02800271 94.5 54.5 C103.88323036 59.99523209 113.25578092 65.5079062 122.61328125 71.046875 C129.60444047 75.18220198 136.60979212 79.29306977 143.6187439 83.39813232 C162.49990824 94.45699062 181.36903639 105.52240637 200 117 C197.40114094 118.29942953 196.48432543 117.78319834 193.7109375 117.0390625 C192.85113281 116.81476563 191.99132812 116.59046875 191.10546875 116.359375 C189.75388672 115.99585938 189.75388672 115.99585938 188.375 115.625 C163.88383742 109.0796379 139.95606301 110.97556313 117.4765625 122.86328125 C106.97132638 128.9494382 96.75408184 137.86887725 90 148 C89.78604599 151.01897904 89.68866857 153.94869586 89.68115234 156.96948242 C89.67110672 157.88675613 89.6610611 158.80402985 89.65071106 159.74909973 C89.61979142 162.78454963 89.6028195 165.81991098 89.5859375 168.85546875 C89.56723292 170.95869208 89.54766005 173.06190786 89.5272522 175.16511536 C89.47585001 180.70363923 89.43626756 186.24218745 89.39910889 191.78082275 C89.35911991 197.43141748 89.3080043 203.0819102 89.2578125 208.73242188 C89.16095747 219.82154301 89.07658335 230.91072164 89 242 C83.11669372 239.12793435 78.57652691 235.66871594 74 231 C72.94908444 229.94675019 71.89694556 228.89471993 70.84375 227.84375 C67.5 224.5 67.5 224.5 64.15625 221.15625 C63.62354492 220.62370605 63.09083984 220.09116211 62.54199219 219.54248047 C61.1049632 218.10499644 59.66960294 216.66584475 58.234375 215.2265625 C56.75897529 213.75632153 55.26428529 212.30515833 53.75 210.875 C52 209 52 209 51 206 C50.01 205.01 50.01 205.01 49 204 C46.56186217 201.10471133 44.64091576 198.3990398 43 195 C42.01 194.01 42.01 194.01 41 193 C40.566875 192.071875 40.566875 192.071875 40.125 191.125 C39.07856978 188.8702685 39.07856978 188.8702685 37 187.125 C34.60044511 184.57547293 34.05404848 182.30268525 33 179 C32.484375 178.484375 31.96875 177.96875 31.4375 177.4375 C29.48933926 175.48933926 29.48913878 173.65532482 29 171 C28.34 170.67 27.68 170.34 27 170 C25.61769605 167.45550419 24.3200502 164.91759024 23.0625 162.3125 C22.71509766 161.60416016 22.36769531 160.89582031 22.00976562 160.16601562 C21.32293 158.76518138 20.63880839 157.36301291 19.95751953 155.95947266 C19.11195494 154.22910514 18.24324805 152.51008788 17.37109375 150.79296875 C15.23033958 146.43217323 13.62977821 141.98882409 12.125 137.375 C10.81135524 133.38034791 9.42514986 129.43286744 7.9375 125.5 C5.51579583 118.92135481 3.67721098 112.1327234 2.54296875 105.2109375 C2.36378906 104.48132813 2.18460937 103.75171875 2 103 C1.34 102.67 0.68 102.34 0 102 C0 68.34 0 34.68 0 0 Z " fill="#0D8AD4" transform="translate(321,386)"/>
<path d="M0 0 C0.64308105 0.2155957 1.28616211 0.43119141 1.94873047 0.65332031 C37.90478261 12.74079253 76.07510429 34.81649595 102 63 C102 66 102 66 99.61328125 68.72729492 C98.52068881 69.81941176 97.4198246 70.90329204 96.3125 71.98046875 C95.44685425 72.83974724 95.44685425 72.83974724 94.5637207 73.71638489 C92.71605624 75.54723565 90.85824193 77.36739185 89 79.1875 C87.74671407 80.42574262 86.49410099 81.66466668 85.2421875 82.90429688 C82.16921472 85.94416468 79.08709758 88.97448016 76 92 C72.63755493 90.71872714 70.45124615 89.76886336 68.0625 87.0625 C33.50416759 51.16929638 -20.59576021 31.20678634 -69 26 C-70.1240625 25.86980469 -71.248125 25.73960937 -72.40625 25.60546875 C-126.26857752 20.39970256 -185.09077699 34.9816498 -229 67 C-229.62213379 67.44988281 -230.24426758 67.89976562 -230.88525391 68.36328125 C-238.48904519 73.88007838 -245.87745353 79.47596034 -252.69140625 85.96484375 C-255.6089398 88.53681495 -258.8351063 90.73936164 -262 93 C-270.91 84.09 -279.82 75.18 -289 66 C-284.54901026 57.09802053 -275.71177283 51.03168328 -268 45 C-267.12577393 44.31115723 -267.12577393 44.31115723 -266.23388672 43.60839844 C-225.98980157 12.06716263 -176.78098889 -8.11782382 -126 -14 C-125.25089355 -14.0942627 -124.50178711 -14.18852539 -123.72998047 -14.28564453 C-82.13581897 -18.86354102 -39.41324595 -13.72748073 0 0 Z " fill="#0C8BD5" transform="translate(1457,122)"/>
<path d="M0 0 C2.12015043 1.87653066 4.23008914 3.76287939 6.328125 5.6640625 C4.70656476 9.76515136 1.7513547 12.49554417 -1.3359375 15.5234375 C-1.88800873 16.07267883 -2.44007996 16.62192017 -3.00888062 17.18780518 C-4.76689315 18.93465543 -6.5317439 20.67440851 -8.296875 22.4140625 C-9.4926458 23.59979841 -10.68796365 24.7859913 -11.8828125 25.97265625 C-14.80727753 28.87511335 -17.73789374 31.7712266 -20.671875 34.6640625 C-24.12956222 32.3854525 -27.38402541 30.16762219 -30.421875 27.3515625 C-61.67486483 -0.32463112 -104.77563338 -12.4287799 -145.90429688 -10.21582031 C-185.01999636 -7.47667454 -218.54531161 9.21460678 -247.671875 34.6640625 C-251.77296386 33.04250226 -254.50335667 30.0872922 -257.53125 27 C-258.08049133 26.44792877 -258.62973267 25.89585754 -259.19561768 25.32705688 C-260.94246793 23.56904435 -262.68222101 21.8041936 -264.421875 20.0390625 C-265.60761091 18.8432917 -266.7938038 17.64797385 -267.98046875 16.453125 C-270.88292585 13.52865997 -273.7790391 10.59804376 -276.671875 7.6640625 C-248.92173644 -26.13819653 -200.40921259 -44.91484696 -158.14453125 -49.921875 C-99.87186896 -55.27442753 -44.18825362 -38.63242056 0 0 Z " fill="#1574C4" transform="translate(1498.671875,234.3359375)"/>
<path d="M0 0 C9.61467633 7.98069735 16.8511077 19.48985431 18.22753906 32.08154297 C19.27173916 47.05826197 16.45098907 59.07963136 7 71 C6.401875 71.886875 5.80375 72.77375 5.1875 73.6875 C-1.96656908 81.25037303 -12.56572152 87.28897071 -23.09960938 88.17700195 C-39.87651099 88.63511796 -53.27838024 86.66246495 -66.25390625 74.96875 C-77.37577132 63.31928223 -80.71839209 49.71094158 -80.375 34.1015625 C-79.80161798 23.08034091 -75.42948767 14.07693757 -68 6 C-67.50113281 5.38769531 -67.00226563 4.77539062 -66.48828125 4.14453125 C-49.84872445 -14.84216707 -19.16482781 -14.20103879 0 0 Z " fill="#283F9C" transform="translate(1395,348)"/>
<path d="M0 0 C0.67933594 0.55171875 1.35867188 1.1034375 2.05859375 1.671875 C3.3868372 2.76391811 4.69699262 3.87796587 6 5 C5.5844157 9.46402906 2.47386326 11.90601071 -0.56640625 14.859375 C-1.11989243 15.40861633 -1.6733786 15.95785767 -2.24363708 16.52374268 C-4.00966559 18.27300464 -5.78584692 20.01153644 -7.5625 21.75 C-8.76305441 22.935505 -9.9629326 24.12169524 -11.16210938 25.30859375 C-14.10029095 28.21373293 -17.04762074 31.10929337 -20 34 C-23.85381159 32.53551959 -26.63844234 30.87855584 -29.875 28.3125 C-47.7435026 15.11471859 -69.57283429 10.29013347 -91.5 12.5625 C-110.3684366 15.62660509 -124.85675001 23.64256251 -140 35 C-148.91 26.09 -157.82 17.18 -167 8 C-159.11898604 -7.76202792 -135.24527225 -17.32797082 -119.4609375 -22.6328125 C-78.51551804 -35.58977864 -33.09958932 -27.34079898 0 0 Z " fill="#1D5EB4" transform="translate(1444,289)"/>
</svg>
